FiraMath-Medium.sfdir
StartChar: uni0024
Encoding: 36 36 4
Width: 541
Flags: W
HStem: -158 245<228 289.5 219.5 326 228 228> -10 97<228 228> -5 21G<326 326> 586 241<248 305.5>
VStem: 44 131<483 533 483 548.5> 228 98<-158 -10 -10 -10 680 827> 377 132<153.5 214>
LayerCount: 2
Fore
SplineSet
509 193 m 0x3e
 509 92 443 16 326 -5 c 1x3e
 326 -158 l 1
 228 -158 l 1x9e
 228 -10 l 1
 136 -4 67 31 17 80 c 1
 85 155 l 1
 131 112 185 87 254 87 c 0
 325 87 377 121 377 186 c 0x5e
 377 242 349 267 245 299 c 0
 104 342 44 399 44 499 c 0
 44 598 119 666 228 680 c 1
 228 827 l 1
 326 827 l 1
 326 680 l 1
 394 671 445 644 490 601 c 1
 425 528 l 1
 380 569 333 586 278 586 c 0
 218 586 175 559 175 507 c 0
 175 459 201 437 312 403 c 0
 429 366 509 318 509 193 c 0x3e
EndSplineSet
EndChar
StartChar: uni0029
Encoding: 41 41 9
Width: 324
Flags: W
HStem: -152 1004<106 106>
VStem: 166 130<251 449.5>
LayerCount: 2
Fore
SplineSet
106 852 m 1
 206 714 296 588 296 350 c 0
 296 112 206 -14 106 -152 c 1
 25 -97 l 1
 116 35 166 152 166 350 c 0
 166 549 116 665 25 797 c 1
 106 852 l 1
EndSplineSet
EndChar
StartChar: uni002A
Encoding: 42 42 10
Width: 444
Flags: W
HStem: 721 20G<164 280 280 280>
VStem: 13 418<547 547>
LayerCount: 2
Fore
SplineSet
431 547 m 1
 284 519 l 1
 387 411 l 1
 294 343 l 1
 222 473 l 1
 151 343 l 1
 58 410 l 1
 159 520 l 1
 13 547 l 1
 48 653 l 1
 182 590 l 1
 164 741 l 1
 280 741 l 1
 262 590 l 1
 395 654 l 1
 431 547 l 1
EndSplineSet
EndChar
StartChar: uni002F
Encoding: 47 47 15
Width: 520
Flags: W
HStem: -108 920<199 322>
VStem: 88 344
LayerCount: 2
Fore
SplineSet
322 812 m 1
 432 787 l 1
 199 -108 l 1
 88 -82 l 1
 322 812 l 1
EndSplineSet
EndChar
StartChar: uni0030
Encoding: 48 48 16
Width: 573
Flags: W
HStem: -15 97<249 323 249 365.5> 588 97<249 323>
VStem: 45 132<242 429 242 448> 395 132<241 430.5>
LayerCount: 2
Fore
SplineSet
286 685 m 0
 445 685 527 560 527 336 c 0
 527 111 445 -15 286 -15 c 0
 128 -15 45 111 45 336 c 0
 45 560 128 685 286 685 c 0
286 588 m 0
 212 588 177 522 177 336 c 0
 177 148 212 82 286 82 c 0
 360 82 395 146 395 336 c 0
 395 525 360 588 286 588 c 0
EndSplineSet
EndChar
StartChar: uni0032
Encoding: 50 50 18
Width: 507
Flags: W
HStem: 0 101<179 453> 555 20G<15 15> 584 101<196.5 252>
VStem: 320 132<439 517>
LayerCount: 2
Fore
SplineSet
233 685 m 0
 372 685 452 601 452 496 c 0
 452 382 387 299 179 101 c 1
 467 101 l 1
 453 0 l 1
 34 0 l 1
 34 94 l 1
 264 328 320 391 320 486 c 0
 320 548 281 584 223 584 c 0
 170 584 135 562 93 513 c 1
 15 575 l 1
 69 645 140 685 233 685 c 0
EndSplineSet
EndChar
StartChar: uni0038
Encoding: 56 56 24
Width: 567
Flags: W
HStem: -15 95<248 321.5 248 357.5> 595 90<255 315.5>
VStem: 37 129<151 213.5 151 220> 64 124<477.5 535.5 477.5 563> 380 124<483 533.5> 401 130<152 212.5>
LayerCount: 2
Fore
SplineSet
393 361 m 1xe4
 485 320 531 261 531 181 c 0
 531 71 434 -15 281 -15 c 0
 130 -15 37 70 37 179 c 0xe4
 37 261 85 315 165 349 c 1
 93 388 64 442 64 508 c 0
 64 618 164 685 284 685 c 0
 403 685 504 625 504 513 c 0xd8
 504 451 469 400 393 361 c 1xe4
284 595 m 0xd8
 226 595 188 565 188 506 c 0
 188 449 224 424 289 400 c 2
 308 393 l 1
 361 426 380 459 380 507 c 0
 380 560 347 595 284 595 c 0xd8
284 80 m 0xe4
 359 80 401 123 401 181 c 0
 401 244 368 272 278 305 c 2
 247 316 l 1
 193 287 166 244 166 183 c 0
 166 119 212 80 284 80 c 0xe4
EndSplineSet
EndChar
StartChar: uni0039
Encoding: 57 57 25
Width: 544
Flags: W
HStem: 238 93<232 256.5> 590 95<236.5 306.5>
VStem: 35 128<413 502 413 527.5> 374 131
LayerCount: 2
Fore
SplineSet
269 685 m 0
 425 685 505 579 505 424 c 0
 505 147 383 39 113 -25 c 1
 86 66 l 1
 254 110 350 175 368 308 c 1
 336 267 289 238 224 238 c 0
 120 238 35 321 35 457 c 0
 35 598 139 685 269 685 c 0
259 331 m 0
 305 331 344 356 374 400 c 1
 376 539 344 590 269 590 c 0
 204 590 163 545 163 459 c 0
 163 367 205 331 259 331 c 0
EndSplineSet
EndChar
StartChar: uni003C
Encoding: 60 60 28
Width: 510
Flags: W
HStem: 101 464<427 427>
VStem: 42 427<198 392 198 392>
LayerCount: 2
Fore
SplineSet
427 565 m 1
 469 470 l 1
 148 333 l 1
 469 198 l 1
 427 101 l 1
 42 273 l 1
 42 392 l 1
 427 565 l 1
EndSplineSet
EndChar
StartChar: uni003F
Encoding: 63 63 31
Width: 471
Flags: W
HStem: -15 162<188.5 234> 604 102<209.5 258>
VStem: 131 162<44 88.5> 150 119<244 278 244 283 244 368.5> 316 134<487 556>
LayerCount: 2
Fore
SplineSet
243 706 m 0xd8
 380 706 450 629 450 544 c 0
 450 383 269 399 269 278 c 2
 269 244 l 1
 150 244 l 1
 150 283 l 2
 150 454 316 440 316 534 c 0
 316 578 284 604 232 604 c 0
 187 604 143 583 105 538 c 1
 22 603 l 1
 78 669 150 706 243 706 c 0xd8
211 147 m 0xe8
 257 147 293 111 293 66 c 0
 293 22 257 -15 211 -15 c 0
 166 -15 131 22 131 66 c 0
 131 111 166 147 211 147 c 0xe8
EndSplineSet
EndChar
StartChar: uni0042
Encoding: 66 66 34
Width: 613
Flags: W
HStem: 0 99<213 289> 315 92<213 294 294 304 213 294> 594 97<213 262 262 275 213 213>
VStem: 81 132<99 315 407 594> 413 135<472 539> 440 138<160.5 245.5>
LayerCount: 2
Fore
SplineSet
420 366 m 1xf4
 499 351 578 314 578 199 c 0xf4
 578 47 457 0 289 0 c 2
 81 0 l 1
 81 691 l 1
 262 691 l 2
 440 691 548 641 548 515 c 0xf8
 548 429 486 380 420 366 c 1xf4
275 594 m 2
 213 594 l 1
 213 407 l 1
 294 407 l 2
 366 407 413 439 413 504 c 0xf8
 413 574 365 594 275 594 c 2
290 99 m 2xf4
 377 99 440 117 440 204 c 0
 440 287 381 315 304 315 c 2
 213 315 l 1
 213 99 l 1
 290 99 l 2xf4
EndSplineSet
EndChar
StartChar: uni004D
Encoding: 77 77 45
Width: 782
Flags: W
HStem: 0 21G<46 174 46 46 607 736 607 607> 572 119<195 195> 671 20G<101 271 271 271 510 682 682 682>
VStem: 46 690<0 0>
LayerCount: 2
Fore
SplineSet
682 691 m 1xb0
 736 0 l 1
 607 0 l 1
 589 289 l 2
 583 391 578 498 580 571 c 1
 454 75 l 1
 329 75 l 1
 195 572 l 1xd0
 199 479 197 384 191 285 c 2
 174 0 l 1
 46 0 l 1
 101 691 l 1
 271 691 l 1
 394 207 l 1
 510 691 l 1
 682 691 l 1xb0
EndSplineSet
EndChar
StartChar: uni0058
Encoding: 88 88 56
Width: 562
Flags: W
HStem: 0 21G<0 141 0 0 416 563 416 416> 671 20G<16 163 163 163 402 543 543 543>
VStem: 0 563<0 0>
LayerCount: 2
Fore
SplineSet
358 373 m 1
 563 0 l 1
 416 0 l 1
 278 283 l 1
 141 0 l 1
 0 0 l 1
 200 368 l 1
 16 691 l 1
 163 691 l 1
 280 452 l 1
 402 691 l 1
 543 691 l 1
 358 373 l 1
EndSplineSet
EndChar
StartChar: uni0062
Encoding: 98 98 66
Width: 589
Flags: W
HStem: -15 96<307 333.5 281 401> 0 21G<75 188 75 75> 448 96<318.5 338.5> 721 20G<75 75> 735 20G<203 203>
VStem: 75 128<142 376 469 741 741 741> 411 134<198.5 335.5>
LayerCount: 2
Fore
SplineSet
349 544 m 0xae
 472 544 545 442 545 265 c 0
 545 100 466 -15 336 -15 c 0
 278 -15 230 11 196 54 c 1xae
 188 0 l 1
 75 0 l 1
 75 741 l 1x76
 203 755 l 1
 203 469 l 1
 237 516 288 544 349 544 c 0xae
301 81 m 0
 366 81 411 132 411 265 c 0
 411 406 369 448 308 448 c 0
 262 448 228 417 203 376 c 1
 203 142 l 1
 226 104 261 81 301 81 c 0
EndSplineSet
EndChar
StartChar: uni0064
Encoding: 100 100 68
Width: 592
Flags: W
HStem: -15 97<248.5 278> 0 21G<404 517 404 404> 448 96<255 284 190.5 309.5> 721 20G<517 517> 735 20G<389 389>
VStem: 43 135<197 328.5 197 345.5> 389 128<150 392 392 392 487 741 0 755 0 755>
LayerCount: 2
Fore
SplineSet
389 755 m 1xae
 517 741 l 1
 517 0 l 1
 404 0 l 1x76
 395 67 l 1
 363 19 312 -15 244 -15 c 0
 112 -15 43 96 43 264 c 0
 43 427 125 544 256 544 c 0
 312 544 356 520 389 487 c 1
 389 755 l 1xae
280 82 m 0xae
 327 82 359 105 389 150 c 1
 389 392 l 1
 361 426 331 448 288 448 c 0
 222 448 178 392 178 265 c 0
 178 129 217 82 280 82 c 0xae
EndSplineSet
EndChar
StartChar: uni0068
Encoding: 104 104 72
Width: 576
Flags: W
HStem: 0 21G<75 203 75 75 379 507 379 379> 448 96<325 333.5> 733 20G<203 203>
VStem: 75 128<0 369 0 466 466 740 740 740> 379 128<0 363 363 383 0 396>
LayerCount: 2
Fore
SplineSet
357 544 m 0
 451 544 507 483 507 383 c 2
 507 0 l 1
 379 0 l 1
 379 363 l 2
 379 429 353 448 314 448 c 0
 269 448 234 417 203 369 c 1
 203 0 l 1
 75 0 l 1
 75 740 l 1
 203 753 l 1
 203 466 l 1
 244 516 293 544 357 544 c 0
EndSplineSet
EndChar
StartChar: uni0069
Encoding: 105 105 73
Width: 278
Flags: W
HStem: 0 21G<75 203 75 75> 509 20G<75 203 203 203> 642 155<114.5 162>
VStem: 58 161<697.5 741> 75 128<0 529 0 529>
LayerCount: 2
Fore
SplineSet
138 797 m 0xf0
 186 797 219 763 219 719 c 0
 219 676 186 642 138 642 c 0
 91 642 58 676 58 719 c 0
 58 763 91 797 138 797 c 0xf0
203 529 m 1xe8
 203 0 l 1
 75 0 l 1
 75 529 l 1
 203 529 l 1xe8
EndSplineSet
EndChar
StartChar: uni0079
Encoding: 121 121 89
Width: 506
Flags: W
HStem: -218 21G<58 58> 0 21G<170 214 170 170> 509 20G<2 138 138 138 373 505 505 505>
VStem: 2 503<529 529>
LayerCount: 2
Fore
SplineSet
505 529 m 1
 333 -2 l 2
 293 -126 215 -206 58 -218 c 1
 45 -125 l 1
 150 -109 184 -75 214 0 c 1
 170 0 l 1
 2 529 l 1
 138 529 l 1
 253 85 l 1
 373 529 l 1
 505 529 l 1
EndSplineSet
EndChar
StartChar: uni00A5
Encoding: 165 165 100
Width: 554
Flags: W
HStem: 0 196<78 341 78 213> 124 72<78 213 78 213 341 477> 276 73<78 182 78 213 78 182 372 477>
VStem: 213 128<0 124 0 124 196 276>
LayerCount: 2
Fore
SplineSet
555 673 m 1xb0
 372 349 l 1
 477 349 l 1
 477 276 l 1
 341 276 l 1
 341 196 l 1
 477 196 l 1xb0
 477 124 l 1
 341 124 l 1x70
 341 0 l 1
 213 0 l 1xb0
 213 124 l 1
 78 124 l 1x70
 78 196 l 1
 213 196 l 1
 213 276 l 1
 78 276 l 1
 78 349 l 1
 182 349 l 1
 -2 673 l 1
 136 673 l 1
 280 385 l 1
 422 673 l 1
 555 673 l 1xb0
EndSplineSet
EndChar
StartChar: uni00A7
Encoding: 167 167 102
Width: 542
Flags: W
HStem: -78 93<221 272.5 221 312> 592 91<264.5 316.5>
VStem: 60 116<301.5 330> 85 123<518 554 518 577> 335 124<51 87.5> 367 115<273.5 303>
LayerCount: 2
Fore
SplineSet
405 178 m 1xd8
 442 151 459 121 459 75 c 0
 459 -17 375 -78 249 -78 c 0
 174 -78 114 -56 68 -25 c 1
 112 53 l 1
 154 27 196 15 246 15 c 0
 299 15 335 34 335 68 c 0
 335 107 318 122 214 155 c 0
 115 186 60 221 60 304 c 0xe8
 60 356 93 399 139 426 c 1
 102 452 85 484 85 531 c 0
 85 623 166 683 287 683 c 0
 361 683 422 662 470 628 c 1
 426 553 l 1
 383 579 341 592 292 592 c 0
 237 592 208 571 208 537 c 0
 208 499 226 482 327 450 c 0
 427 417 482 379 482 300 c 0xd4
 482 247 449 206 405 178 c 1xd8
262 242 m 2xe4
 334 215 l 1
 355 236 367 262 367 283 c 0
 367 323 346 340 264 369 c 0
 243 376 224 383 206 390 c 1
 187 368 176 342 176 322 c 0
 176 281 195 264 262 242 c 2xe4
EndSplineSet
EndChar
StartChar: uni00A9
Encoding: 169 169 104
Width: 810
Flags: W
HStem: 109 68<334.5 477 334.5 496.5> 240 76<391 431.5 391 436> 553 75<393 429.5> 562 20G<532 532> 691 67<334.5 477>
VStem: 78 78<356.5 509.5 356.5 528.5> 238 96<392.5 477 392.5 495.5> 655 77<356.5 509.5>
LayerCount: 2
Fore
SplineSet
406 758 m 0xdf
 587 758 732 624 732 433 c 0
 732 243 587 109 406 109 c 0
 225 109 78 243 78 433 c 0
 78 624 225 758 406 758 c 0xdf
406 691 m 0
 263 691 156 586 156 433 c 0
 156 280 263 177 406 177 c 0
 548 177 655 280 655 433 c 0
 655 586 548 691 406 691 c 0
408 628 m 0xef
 459 628 498 611 532 582 c 1xdf
 490 527 l 1
 465 546 443 553 416 553 c 0
 370 553 334 520 334 434 c 0
 334 351 367 316 415 316 c 0
 448 316 472 327 497 347 c 1
 536 290 l 1
 504 261 463 240 409 240 c 0
 307 240 238 309 238 434 c 0
 238 557 313 628 408 628 c 0xef
EndSplineSet
EndChar
StartChar: uni00B1
Encoding: 177 177 112
Width: 517
Flags: W
HStem: 0 102<58 459 58 459> 331 101<55 204 55 204 313 462>
VStem: 204 109<178 331 178 331 432 585>
LayerCount: 2
Fore
SplineSet
313 585 m 1
 313 432 l 1
 462 432 l 1
 462 331 l 1
 313 331 l 1
 313 178 l 1
 204 178 l 1
 204 331 l 1
 55 331 l 1
 55 432 l 1
 204 432 l 1
 204 585 l 1
 313 585 l 1
58 0 m 1
 58 102 l 1
 459 102 l 1
 459 0 l 1
 58 0 l 1
EndSplineSet
EndChar
StartChar: uni00B4
Encoding: 180 180 115
Width: 322
Flags: W
HStem: 630 190<66 240>
VStem: 30 262<695 720>
LayerCount: 2
Fore
SplineSet
240 820 m 1
 292 720 l 1
 66 630 l 1
 30 695 l 1
 240 820 l 1
EndSplineSet
EndChar
StartChar: uni00B6
Encoding: 182 182 117
Width: 763
Flags: W
HStem: -219 21G<309 309 524 524> 598 93<422 524 422 422>
VStem: 309 113<-203 272 272 272> 524 113<-203 598 598 598>
LayerCount: 2
Fore
SplineSet
332 691 m 2
 637 691 l 1
 637 -203 l 1
 524 -219 l 1
 524 598 l 1
 422 598 l 1
 422 -203 l 1
 309 -219 l 1
 309 272 l 1
 150 277 76 364 76 482 c 0
 76 614 172 691 332 691 c 2
EndSplineSet
EndChar
StartChar: uni00B7
Encoding: 183 183 118
Width: 240
Flags: W
HStem: 228 162<96.5 142>
VStem: 39 162<287 331>
LayerCount: 2
Fore
SplineSet
119 390 m 0
 165 390 201 353 201 309 c 0
 201 265 165 228 119 228 c 0
 74 228 39 265 39 309 c 0
 39 353 74 390 119 390 c 0
EndSplineSet
EndChar
StartChar: uni00B8
Encoding: 184 184 119
Width: 300
Flags: W
HStem: -253 75<111.5 138 111.5 173> -106 122<97 114>
VStem: 173 97<-156.5 -131>
LayerCount: 2
Fore
SplineSet
171 16 m 1
 171 -52 l 1
 241 -59 270 -96 270 -144 c 0
 270 -211 213 -253 133 -253 c 0
 90 -253 53 -241 30 -225 c 1
 61 -162 l 1
 80 -172 99 -178 124 -178 c 0
 152 -178 173 -169 173 -144 c 0
 173 -118 146 -106 82 -106 c 1
 97 16 l 1
 171 16 l 1
EndSplineSet
EndChar
StartChar: uni00BB
Encoding: 187 187 122
Width: 598
Flags: W
HStem: 25 522<123 123 123 371>
VStem: 45 508<77 327 244 494>
LayerCount: 2
Fore
SplineSet
123 547 m 1
 306 327 l 1
 306 244 l 1
 123 25 l 1
 45 77 l 1
 176 286 l 1
 45 494 l 1
 123 547 l 1
371 547 m 1
 553 327 l 1
 553 244 l 1
 371 25 l 1
 293 77 l 1
 424 286 l 1
 293 494 l 1
 371 547 l 1
EndSplineSet
EndChar
StartChar: uni00C7
Encoding: 199 199 134
Width: 568
Flags: W
HStem: -253 75<320.5 347 320.5 382> -13 21G<380 380> -13 104<380 380> -12 21G<303 303> 604 102<304 375.5>
VStem: 43 139<256 440.5 256 463> 382 97<-156.5 -131>
LayerCount: 2
Fore
SplineSet
555 69 m 1xac
 518 31 458 -5 380 -13 c 1
 380 -52 l 1xce
 450 -59 479 -96 479 -144 c 0
 479 -211 422 -253 342 -253 c 0
 299 -253 262 -241 239 -225 c 1
 270 -162 l 1
 289 -172 308 -178 333 -178 c 0
 361 -178 382 -169 382 -144 c 0
 382 -118 355 -106 291 -106 c 1
 303 -12 l 1x9e
 148 7 43 132 43 347 c 0
 43 579 175 706 345 706 c 0
 433 706 490 680 547 633 c 1
 480 555 l 1
 440 587 399 604 352 604 c 0
 256 604 182 534 182 347 c 0
 182 165 254 91 352 91 c 0
 412 91 453 117 493 147 c 1
 555 69 l 1xac
EndSplineSet
EndChar
StartChar: uni00D7
Encoding: 215 215 150
Width: 510
Flags: W
HStem: 115 384<136 136 136 374>
VStem: 63 384<188 188 188 426>
LayerCount: 2
Fore
SplineSet
374 499 m 1
 447 426 l 1
 329 309 l 1
 447 188 l 1
 374 115 l 1
 257 237 l 1
 136 115 l 1
 63 188 l 1
 181 304 l 1
 63 426 l 1
 136 499 l 1
 253 376 l 1
 374 499 l 1
EndSplineSet
EndChar
StartChar: uni00DA
Encoding: 218 218 153
Width: 656
Flags: W
HStem: -15 103<284.5 370 284.5 411.5> 671 20G<71 203 203 203 452 585 585 585>
VStem: 71 132<226 233 233 691> 452 133<233 691>
LayerCount: 2
Fore
SplineSet
409 936 m 1
 459 836 l 1
 230 753 l 1
 197 819 l 1
 409 936 l 1
585 691 m 1
 585 226 l 2
 585 87 496 -15 327 -15 c 0
 157 -15 71 84 71 226 c 2
 71 691 l 1
 203 691 l 1
 203 233 l 2
 203 136 242 88 327 88 c 0
 413 88 452 136 452 233 c 2
 452 691 l 1
 585 691 l 1
EndSplineSet
EndChar
StartChar: uni00DC
Encoding: 220 220 155
Width: 656
Flags: W
HStem: -15 103<284.5 370 284.5 411.5> 671 20G<71 203 203 203 452 585 585 585> 773 138<197 236.5 418.5 458>
VStem: 71 132<226 233 233 691> 146 140<822.5 861.5> 368 140<822.5 861.5> 452 133<233 691>
LayerCount: 2
Fore
SplineSet
217 911 m 0xec
 256 911 286 881 286 842 c 0
 286 803 256 773 217 773 c 0
 177 773 146 803 146 842 c 0
 146 881 177 911 217 911 c 0xec
438 911 m 0
 478 911 508 881 508 842 c 0
 508 803 478 773 438 773 c 0
 399 773 368 803 368 842 c 0
 368 881 399 911 438 911 c 0
585 691 m 1xf2
 585 226 l 2
 585 87 496 -15 327 -15 c 0
 157 -15 71 84 71 226 c 2
 71 691 l 1
 203 691 l 1
 203 233 l 2
 203 136 242 88 327 88 c 0
 413 88 452 136 452 233 c 2
 452 691 l 1
 585 691 l 1xf2
EndSplineSet
EndChar
StartChar: uni00DD
Encoding: 221 221 156
Width: 574
Flags: W
HStem: 0 21G<220 354 220 220> 671 20G<-2 144 144 144 436 576 576 576>
VStem: 220 134<0 261 261 261>
LayerCount: 2
Fore
SplineSet
368 936 m 1
 418 836 l 1
 189 753 l 1
 156 819 l 1
 368 936 l 1
576 691 m 1
 354 262 l 1
 354 0 l 1
 220 0 l 1
 220 261 l 1
 -2 691 l 1
 144 691 l 1
 290 370 l 1
 436 691 l 1
 576 691 l 1
EndSplineSet
EndChar
StartChar: uni00E5
Encoding: 229 229 164
Width: 546
Flags: W
HStem: -15 93<215.5 237.5> 250 75<276 289 289 342> 447 97<235 277> 613 68<252 281.5 252 305.5> 786 67<252 281.5>
VStem: 35 130<132.5 189 132.5 205.5> 139 79<716 750 716 766> 315 79<716 750> 342 126<143 250 250 250 325 355 355 362>
LayerCount: 2
Fore
SplineSet
267 613 m 0xfa80
 189 613 139 668 139 733 c 0
 139 799 189 853 267 853 c 0
 344 853 394 799 394 733 c 0xfb
 394 668 344 613 267 613 c 0xfa80
267 786 m 0xfb
 237 786 218 767 218 733 c 0
 218 699 237 681 267 681 c 0
 296 681 315 699 315 733 c 0
 315 767 296 786 267 786 c 0xfb
468 140 m 2xfc80
 468 97 482 82 508 72 c 1
 481 -13 l 1
 423 -8 385 13 364 64 c 1
 327 8 269 -15 206 -15 c 0
 100 -15 35 52 35 148 c 0
 35 263 122 325 276 325 c 2
 342 325 l 1
 342 355 l 2
 342 424 311 447 243 447 c 0
 207 447 156 437 103 419 c 1
 73 506 l 1
 138 531 205 544 265 544 c 0
 406 544 468 479 468 362 c 2
 468 140 l 2xfc80
240 78 m 0
 285 78 318 101 342 143 c 1
 342 250 l 1
 289 250 l 2
 206 250 165 220 165 158 c 0
 165 107 191 78 240 78 c 0
EndSplineSet
EndChar
StartChar: uni00ED
Encoding: 237 237 172
Width: 278
Flags: W
HStem: 0 21G<75 203 75 75> 509 20G<75 203 203 203>
VStem: 75 128<0 529 0 529>
LayerCount: 2
Fore
SplineSet
215 820 m 1
 267 720 l 1
 41 630 l 1
 5 695 l 1
 215 820 l 1
203 529 m 1
 203 0 l 1
 75 0 l 1
 75 529 l 1
 203 529 l 1
EndSplineSet
EndChar
StartChar: uni00F0
Encoding: 240 240 175
Width: 575
Flags: W
HStem: -15 96<249 317.5 249 357> 384 93<238.5 278 184 303> 551 20G<132 132> 734 20G<121 121>
VStem: 43 131<184.5 279.5 184.5 298.5> 396 130<201 272.5>
LayerCount: 2
Fore
SplineSet
349 668 m 1
 481 572 526 445 526 271 c 0
 526 105 433 -15 281 -15 c 0
 148 -15 43 76 43 234 c 0
 43 363 120 477 248 477 c 0
 308 477 352 456 387 421 c 1
 370 491 339 545 277 593 c 1
 215 532 l 1
 132 571 l 1
 196 639 l 1
 160 652 128 660 95 666 c 1
 121 754 l 1
 172 745 216 734 269 712 c 1
 340 788 l 1
 409 728 l 1
 349 668 l 1
281 81 m 0
 354 81 396 141 396 261 c 0
 396 284 395 305 395 326 c 1
 366 364 328 384 278 384 c 0
 199 384 174 321 174 238 c 0
 174 131 217 81 281 81 c 0
EndSplineSet
EndChar
StartChar: uni00F7
Encoding: 247 247 182
Width: 510
Flags: W
HStem: 16 162<232.5 278> 281 102<55 456 55 456> 487 162<232.5 278>
VStem: 175 161<75.5 120 546 590.5>
LayerCount: 2
Fore
SplineSet
255 649 m 0
 301 649 336 613 336 568 c 0
 336 524 301 487 255 487 c 0
 210 487 175 524 175 568 c 0
 175 613 210 649 255 649 c 0
55 281 m 1
 55 383 l 1
 456 383 l 1
 456 281 l 1
 55 281 l 1
255 178 m 0
 301 178 336 142 336 98 c 0
 336 53 301 16 255 16 c 0
 210 16 175 53 175 98 c 0
 175 142 210 178 255 178 c 0
EndSplineSet
EndChar
StartChar: uni00F9
Encoding: 249 249 184
Width: 571
Flags: W
HStem: -15 97<239 252.5> 0 21G<385 496 385 385> 509 20G<69 197 197 197 368 496 496 496> 675 20G<424 424>
VStem: 69 128<149 165 165 529> 368 128<157 529 0 529>
LayerCount: 2
Fore
SplineSet
214 820 m 1x7c
 424 695 l 1
 387 630 l 1
 162 720 l 1
 214 820 l 1x7c
496 529 m 1
 496 0 l 1
 385 0 l 1x7c
 378 74 l 1
 339 14 289 -15 216 -15 c 0
 120 -15 69 47 69 149 c 2
 69 529 l 1
 197 529 l 1
 197 165 l 2
 197 103 217 82 261 82 c 0
 305 82 341 111 368 157 c 1xbc
 368 529 l 1
 496 529 l 1
EndSplineSet
EndChar
StartChar: uni00FC
Encoding: 252 252 187
Width: 571
Flags: W
HStem: -15 97<239 252.5> 0 21G<385 496 385 385> 509 20G<69 197 197 197 368 496 496 496> 647 138<152 191.5 373.5 413>
VStem: 69 128<149 165 165 529> 101 140<696.5 735.5> 323 140<696.5 735.5> 368 128<157 529 0 529>
LayerCount: 2
Fore
SplineSet
172 785 m 0x76
 211 785 241 755 241 716 c 0
 241 677 211 647 172 647 c 0
 132 647 101 677 101 716 c 0
 101 755 132 785 172 785 c 0x76
393 785 m 0
 433 785 463 755 463 716 c 0
 463 677 433 647 393 647 c 0
 354 647 323 677 323 716 c 0
 323 755 354 785 393 785 c 0
496 529 m 1xb9
 496 0 l 1
 385 0 l 1x79
 378 74 l 1
 339 14 289 -15 216 -15 c 0
 120 -15 69 47 69 149 c 2
 69 529 l 1
 197 529 l 1
 197 165 l 2
 197 103 217 82 261 82 c 0
 305 82 341 111 368 157 c 1
 368 529 l 1
 496 529 l 1xb9
EndSplineSet
EndChar
StartChar: uni00FE
Encoding: 254 254 189
Width: 589
Flags: W
HStem: -218 21G<75 75> -15 98<309 335 280 403> 448 96<321.5 342> 721 20G<75 75> 735 20G<203 203>
VStem: 75 128<-201 43 -201 138 138 376 473 741 741 741> 411 134<201 332>
LayerCount: 2
Fore
SplineSet
347 544 m 0xee
 487 544 545 435 545 266 c 0
 545 104 470 -15 336 -15 c 0
 282 -15 236 4 203 43 c 1
 203 -201 l 1
 75 -218 l 1
 75 741 l 1xf6
 203 755 l 1
 203 473 l 1
 243 523 296 544 347 544 c 0xee
300 83 m 0
 370 83 411 137 411 265 c 0
 411 399 375 448 309 448 c 0
 265 448 228 417 203 376 c 1
 203 138 l 1
 228 101 260 83 300 83 c 0
EndSplineSet
EndChar
StartChar: uni0100
Encoding: 256 256 191
Width: 583
Flags: W
HStem: 0 21G<-5 132 -5 -5 447 587 447 447> 160 100<201 377 201 404 175 377> 590 101<289 289> 671 20G<210 373 373 373> 787 91<146 437 146 437>
VStem: 146 291<787 878 787 878>
LayerCount: 2
Fore
SplineSet
437 878 m 1xdc
 437 787 l 1
 146 787 l 1
 146 878 l 1
 437 878 l 1xdc
447 0 m 1
 404 160 l 1
 175 160 l 1
 132 0 l 1
 -5 0 l 1
 210 691 l 1
 373 691 l 1
 587 0 l 1
 447 0 l 1
201 260 m 1
 377 260 l 1
 289 590 l 1xec
 201 260 l 1
EndSplineSet
EndChar
StartChar: uni0103
Encoding: 259 259 194
Width: 546
Flags: W
HStem: -15 93<215.5 237.5> 250 75<276 289 289 342> 447 97<235 277> 637 92<242 288 242 312>
VStem: 35 130<132.5 189 132.5 205.5> 342 126<143 250 250 250 325 355 355 362>
LayerCount: 2
Fore
SplineSet
265 637 m 0
 171 637 111 702 103 792 c 1
 178 806 l 1
 191 757 219 729 265 729 c 0
 311 729 341 757 353 806 c 1
 429 792 l 1
 421 702 359 637 265 637 c 0
468 140 m 2
 468 97 482 82 508 72 c 1
 481 -13 l 1
 423 -8 385 13 364 64 c 1
 327 8 269 -15 206 -15 c 0
 100 -15 35 52 35 148 c 0
 35 263 122 325 276 325 c 2
 342 325 l 1
 342 355 l 2
 342 424 311 447 243 447 c 0
 207 447 156 437 103 419 c 1
 73 506 l 1
 138 531 205 544 265 544 c 0
 406 544 468 479 468 362 c 2
 468 140 l 2
240 78 m 0
 285 78 318 101 342 143 c 1
 342 250 l 1
 289 250 l 2
 206 250 165 220 165 158 c 0
 165 107 191 78 240 78 c 0
EndSplineSet
EndChar
StartChar: uni0106
Encoding: 262 262 197
Width: 568
Flags: W
HStem: -15 106<303 382 303 394> 604 102<304 375.5>
VStem: 43 139<256 440.5 256 463>
LayerCount: 2
Fore
SplineSet
432 936 m 1
 482 836 l 1
 253 753 l 1
 220 819 l 1
 432 936 l 1
345 706 m 0
 433 706 490 680 547 633 c 1
 480 555 l 1
 440 587 399 604 352 604 c 0
 256 604 182 534 182 347 c 0
 182 165 254 91 352 91 c 0
 412 91 453 117 493 147 c 1
 555 69 l 1
 513 26 441 -15 347 -15 c 0
 168 -15 43 112 43 347 c 0
 43 579 175 706 345 706 c 0
EndSplineSet
EndChar
StartChar: uni010A
Encoding: 266 266 201
Width: 568
Flags: W
HStem: -15 106<303 382 303 394> 604 102<304 375.5> 768 155<326.5 374>
VStem: 43 139<256 440.5 256 463> 270 161<823.5 867>
LayerCount: 2
Fore
SplineSet
350 923 m 0
 398 923 431 889 431 845 c 0
 431 802 398 768 350 768 c 0
 303 768 270 802 270 845 c 0
 270 889 303 923 350 923 c 0
345 706 m 0
 433 706 490 680 547 633 c 1
 480 555 l 1
 440 587 399 604 352 604 c 0
 256 604 182 534 182 347 c 0
 182 165 254 91 352 91 c 0
 412 91 453 117 493 147 c 1
 555 69 l 1
 513 26 441 -15 347 -15 c 0
 168 -15 43 112 43 347 c 0
 43 579 175 706 345 706 c 0
EndSplineSet
EndChar
StartChar: uni010B
Encoding: 267 267 202
Width: 478
Flags: W
HStem: -15 104<262 318 262 325> 443 101<261 318> 642 155<265.5 313>
VStem: 43 136<198 325.5 198 344.5> 209 161<697.5 741>
LayerCount: 2
Fore
SplineSet
289 797 m 0
 337 797 370 763 370 719 c 0
 370 676 337 642 289 642 c 0
 242 642 209 676 209 719 c 0
 209 763 242 797 289 797 c 0
290 544 m 0
 359 544 412 525 462 482 c 1
 405 405 l 1
 370 431 338 443 298 443 c 0
 224 443 179 389 179 262 c 0
 179 134 226 89 298 89 c 0
 338 89 366 102 405 127 c 1
 462 46 l 1
 414 7 359 -15 291 -15 c 0
 138 -15 43 91 43 260 c 0xf0
 43 429 138 544 290 544 c 0
EndSplineSet
EndChar
StartChar: uni010E
Encoding: 270 270 205
Width: 648
Flags: W
HStem: 0 99<213 269> 592 99<213 251 251 274 213 213>
VStem: 81 132<99 592 99 691 99 691> 466 139<247 453>
LayerCount: 2
Fore
SplineSet
429 928 m 1
 478 872 l 1
 339 752 l 1
 259 752 l 1
 120 872 l 1
 169 928 l 1
 299 845 l 1
 429 928 l 1
251 691 m 2
 433 691 605 635 605 349 c 0
 605 69 434 0 269 0 c 2
 81 0 l 1
 81 691 l 1
 251 691 l 2
274 592 m 2
 213 592 l 1
 213 99 l 1
 278 99 l 2
 381 99 466 145 466 349 c 0
 466 557 376 592 274 592 c 2
EndSplineSet
EndChar
StartChar: uni0113
Encoding: 275 275 210
Width: 549
Flags: W
HStem: -15 97<271 329.5 271 335> 225 83<176 384 176 508 176 384> 453 91<251 317> 661 91<135 426 135 426>
VStem: 43 133<225 225 225 308 225 341.5> 135 291<661 752 661 752> 384 127<308 314 314 357.5>
LayerCount: 2
Fore
SplineSet
426 752 m 1xf4
 426 661 l 1
 135 661 l 1
 135 752 l 1
 426 752 l 1xf4
511 277 m 0xfa
 511 260 509 239 508 225 c 1
 176 225 l 1
 185 117 236 82 306 82 c 0
 353 82 392 97 438 129 c 1
 491 56 l 1
 439 14 375 -15 295 -15 c 0
 131 -15 43 94 43 261 c 0
 43 422 128 544 278 544 c 0
 426 544 511 444 511 277 c 0xfa
384 308 m 1
 384 314 l 2
 384 401 353 453 281 453 c 0
 221 453 183 413 176 308 c 1
 384 308 l 1
EndSplineSet
EndChar
StartChar: uni0114
Encoding: 276 276 211
Width: 530
Flags: W
HStem: 0 99<213 486 213 486> 302 98<213 435 213 435> 593 98<213 468 213 213> 754 92<260 306 260 330>
VStem: 81 132<99 302 400 593>
LayerCount: 2
Fore
SplineSet
283 754 m 0
 189 754 129 818 121 898 c 1
 196 913 l 1
 209 874 237 846 283 846 c 0
 329 846 359 874 371 913 c 1
 447 898 l 1
 439 818 377 754 283 754 c 0
482 691 m 1
 468 593 l 1
 213 593 l 1
 213 400 l 1
 435 400 l 1
 435 302 l 1
 213 302 l 1
 213 99 l 1
 486 99 l 1
 486 0 l 1
 81 0 l 1
 81 691 l 1
 482 691 l 1
EndSplineSet
EndChar
StartChar: uni011F
Encoding: 287 287 222
Width: 537
Flags: W
HStem: -218 90<205.5 309.5 205.5 342.5> 5 96<168 327 246 301> 169 83<255.5 292.5 232.5 333.5> 457 87<231 258 194 292> 483 61 637 92<244 290 244 314>
VStem: 15 115<-78.5 -52 -78.5 -52> 39 129<324 386.5 324 411.5> 70 112<79.5 146> 356 124<323.5 380 295.5 390.5> 391 129<-79 -38.5>
LayerCount: 2
Fore
SplineSet
267 637 m 0xf540
 173 637 113 702 105 792 c 1
 180 806 l 1
 193 757 221 729 267 729 c 0
 313 729 343 757 355 806 c 1
 431 792 l 1
 423 702 361 637 267 637 c 0xf540
505 603 m 1
 537 501 l 1
 497 487 447 483 384 483 c 1
 448 454 480 413 480 347 c 0
 480 244 400 169 267 169 c 0
 244 169 224 171 204 177 c 1
 191 168 182 154 182 138 c 0
 182 119 193 101 246 101 c 2xecc0
 327 101 l 2
 444 101 520 38 520 -49 c 0
 520 -155 429 -218 256 -218 c 0
 68 -218 15 -158 15 -52 c 1
 130 -52 l 1xf620
 130 -105 153 -128 258 -128 c 0
 361 -128 391 -100 391 -58 c 0
 391 -19 360 5 301 5 c 2
 221 5 l 2
 115 5 70 52 70 107 c 0xf4a0
 70 144 93 181 132 205 c 1
 67 239 39 286 39 354 c 0
 39 469 130 544 258 544 c 0
 383 541 441 569 505 603 c 1
260 457 m 0xf540
 202 457 168 417 168 356 c 0
 168 292 203 252 262 252 c 0
 323 252 356 290 356 357 c 0
 356 424 324 457 260 457 c 0xf540
EndSplineSet
EndChar
StartChar: uni0129
Encoding: 297 297 232
Width: 278
Flags: W
HStem: 0 21G<75 203 75 75> 509 20G<75 203 203 203> 644 94<178.5 206.5 178.5 223> 691 93<70 99> 727 20G<317 317>
VStem: 75 128<0 529 0 529>
LayerCount: 2
Fore
SplineSet
197 644 m 0xe4
 141 644 116 691 82 691 c 0
 58 691 45 675 29 646 c 1
 -40 680 l 1
 -16 737 24 784 80 784 c 0xd4
 139 784 161 738 196 738 c 0
 217 738 231 752 249 781 c 1xe4
 317 747 l 1xcc
 291 685 249 644 197 644 c 0xe4
203 529 m 1xcc
 203 0 l 1
 75 0 l 1
 75 529 l 1
 203 529 l 1xcc
EndSplineSet
EndChar
StartChar: uni012D
Encoding: 301 301 236
Width: 278
Flags: W
HStem: 0 21G<75 203 75 75> 509 20G<75 203 203 203> 637 92<115 161 115 185>
VStem: 75 128<0 529 0 529>
LayerCount: 2
Fore
SplineSet
138 637 m 0
 44 637 -16 702 -24 792 c 1
 51 806 l 1
 64 757 92 729 138 729 c 0
 184 729 214 757 226 806 c 1
 302 792 l 1
 294 702 232 637 138 637 c 0
203 529 m 1
 203 0 l 1
 75 0 l 1
 75 529 l 1
 203 529 l 1
EndSplineSet
EndChar
StartChar: uni012E
Encoding: 302 302 237
Width: 294
Flags: W
HStem: -239 85<113 129> 0 21G<198 213 198 198> 671 20G<81 213 213 213>
VStem: -21 98<-123 -100.5> 81 132<6 691 0 691>
LayerCount: 2
Fore
SplineSet
81 691 m 1
 213 691 l 1
 213 0 l 1xe8
 198 0 l 1
 98 -40 77 -76 77 -108 c 0
 77 -138 94 -154 132 -154 c 0xf0
 152 -154 169 -152 193 -147 c 1
 183 -232 l 1xe8
 162 -236 142 -239 116 -239 c 0
 34 -239 -21 -195 -21 -130 c 0xf0
 -21 -71 15 -27 81 6 c 1
 81 691 l 1
EndSplineSet
EndChar
StartChar: uni012F
Encoding: 303 303 238
Width: 278
Flags: W
HStem: -239 85<105 121> 0 21G<190 203 190 190> 509 20G<75 203 203 203> 642 155<114.5 162>
VStem: -29 98<-123 -100> 58 161<697.5 741> 75 128<7 529 0 529>
LayerCount: 2
Fore
SplineSet
138 642 m 0xf4
 91 642 58 676 58 719 c 0
 58 763 91 797 138 797 c 0
 186 797 219 763 219 719 c 0
 219 676 186 642 138 642 c 0xf4
75 7 m 1xf2
 75 529 l 1
 203 529 l 1
 203 0 l 1xf2
 190 0 l 1
 90 -40 69 -76 69 -108 c 0
 69 -138 86 -154 124 -154 c 0xf8
 144 -154 161 -152 185 -147 c 1
 175 -232 l 1xf2
 154 -236 134 -239 108 -239 c 0
 26 -239 -29 -195 -29 -130 c 0xf8
 -29 -70 8 -26 75 7 c 1xf2
EndSplineSet
EndChar
StartChar: uni0130
Encoding: 304 304 239
Width: 294
Flags: W
HStem: 0 21G<81 213 81 81> 671 20G<81 213 213 213> 768 155<122.5 170>
VStem: 66 161<823.5 867> 81 132<0 691 0 691>
LayerCount: 2
Fore
SplineSet
146 923 m 0xf0
 194 923 227 889 227 845 c 0
 227 802 194 768 146 768 c 0
 99 768 66 802 66 845 c 0
 66 889 99 923 146 923 c 0xf0
213 691 m 1xe8
 213 0 l 1
 81 0 l 1
 81 691 l 1
 213 691 l 1xe8
EndSplineSet
EndChar
StartChar: uni0131
Encoding: 305 305 240
Width: 278
Flags: W
HStem: 0 21G<75 203 75 75> 509 20G<75 203 203 203>
VStem: 75 128<0 529 0 529>
LayerCount: 2
Fore
SplineSet
203 529 m 1
 203 0 l 1
 75 0 l 1
 75 529 l 1
 203 529 l 1
EndSplineSet
EndChar
StartChar: uni0133
Encoding: 307 307 242
Width: 557
Flags: W
HStem: -217 21G<289 289> 0 21G<75 203 75 75> 509 20G<75 203 203 203 354 482 482 482> 642 155<114.5 162 394.5 442>
VStem: 58 161<697.5 741> 75 128<0 529 0 529> 338 160<697.5 741> 354 128<39 47 47 529>
LayerCount: 2
Fore
SplineSet
138 797 m 0xfa
 186 797 219 763 219 719 c 0
 219 676 186 642 138 642 c 0
 91 642 58 676 58 719 c 0
 58 763 91 797 138 797 c 0xfa
418 797 m 0
 466 797 498 763 498 719 c 0
 498 676 466 642 418 642 c 0
 371 642 338 676 338 719 c 0
 338 763 371 797 418 797 c 0
203 529 m 1xf5
 203 0 l 1
 75 0 l 1
 75 529 l 1
 203 529 l 1xf5
482 529 m 1
 482 47 l 2
 482 -115 408 -169 289 -217 c 1
 248 -124 l 1
 317 -92 354 -65 354 39 c 2
 354 529 l 1
 482 529 l 1
EndSplineSet
EndChar
StartChar: uni0136
Encoding: 310 310 245
Width: 613
Flags: W
HStem: 0 21G<81 213 81 81 463 463 463 620> 671 20G<81 213 213 213 458 601 601 601>
VStem: 81 132<0 691 0 691> 252 139<-151 -121>
LayerCount: 2
Fore
SplineSet
213 691 m 1
 213 0 l 1
 81 0 l 1
 81 691 l 1
 213 691 l 1
601 691 m 1
 362 378 l 1
 620 0 l 1
 463 0 l 1
 219 369 l 1
 458 691 l 1
 601 691 l 1
322 -72 m 0
 361 -72 391 -101 391 -140 c 0
 391 -162 384 -180 364 -221 c 2
 320 -312 l 1
 253 -312 l 1
 281 -196 l 1
 264 -183 252 -164 252 -140 c 0
 252 -102 282 -72 322 -72 c 0
EndSplineSet
EndChar
StartChar: uni013A
Encoding: 314 314 249
Width: 297
Flags: W
HStem: -15 21G<157.5 214.5> -15 103<157.5 232.5> 721 20G<69 69> 735 20G<197 197>
VStem: 69 128<121 125 125 741 741 741>
LayerCount: 2
Fore
SplineSet
214 985 m 1x98
 264 885 l 1
 35 802 l 1
 2 868 l 1
 214 985 l 1x98
198 -15 m 0
 117 -15 69 34 69 121 c 2
 69 741 l 1xa8
 197 755 l 1
 197 125 l 2
 197 100 205 88 227 88 c 0
 238 88 248 90 256 93 c 1x58
 284 3 l 1
 262 -7 231 -15 198 -15 c 0
EndSplineSet
EndChar
StartChar: uni0141
Encoding: 321 321 256
Width: 535
Flags: W
HStem: 0 108<242 504> 671 20G<110 242 242 242>
VStem: 110 132<108 108 108 239 239 239 424 691>
LayerCount: 2
Fore
SplineSet
242 108 m 1
 518 108 l 1
 504 0 l 1
 110 0 l 1
 110 239 l 1
 61 209 l 1
 15 284 l 1
 110 342 l 1
 110 691 l 1
 242 691 l 1
 242 424 l 1
 385 513 l 1
 431 438 l 1
 242 321 l 1
 242 108 l 1
EndSplineSet
EndChar
StartChar: uni0146
Encoding: 326 326 261
Width: 576
Flags: W
HStem: 0 21G<75 203 75 75 379 507 379 379> 448 96<323.5 334> 509 20G<75 186 186 186>
VStem: 75 128<0 368 0 529> 221 139<-151 -121> 379 128<0 363 363 383 0 396>
LayerCount: 2
Fore
SplineSet
357 544 m 0xd4
 452 544 507 484 507 383 c 2
 507 0 l 1
 379 0 l 1
 379 363 l 2
 379 429 354 448 314 448 c 0
 268 448 234 417 203 368 c 1xd4
 203 0 l 1
 75 0 l 1
 75 529 l 1
 186 529 l 1xb4
 196 460 l 1
 237 513 290 544 357 544 c 0xd4
291 -72 m 0xbc
 330 -72 360 -101 360 -140 c 0
 360 -162 353 -180 333 -221 c 2
 289 -312 l 1
 222 -312 l 1
 250 -196 l 1
 233 -183 221 -164 221 -140 c 0
 221 -102 251 -72 291 -72 c 0xbc
EndSplineSet
EndChar
StartChar: uni0159
Encoding: 345 345 280
Width: 392
Flags: W
HStem: 0 21G<75 203 75 75> 418 125<305 329.5> 509 20G<75 186 186 186> 516 20G<389 389> 536 7 724 20G<55 55 413 413>
VStem: 75 128<0 282 0 529>
LayerCount: 2
Fore
SplineSet
274 619 m 1x96
 194 619 l 1
 55 744 l 1
 104 800 l 1
 234 712 l 1
 364 800 l 1
 413 744 l 1
 274 619 l 1x96
198 425 m 1xc6
 223 501 274 543 336 543 c 0xc6
 355 543 372 541 389 536 c 1x8e
 367 412 l 1
 351 416 339 418 320 418 c 0xc6
 256 418 223 371 203 282 c 1
 203 0 l 1
 75 0 l 1
 75 529 l 1
 186 529 l 1xa6
 198 425 l 1xc6
EndSplineSet
EndChar
StartChar: uni0168
Encoding: 360 360 295
Width: 656
Flags: W
HStem: -15 103<284.5 370 284.5 411.5> 671 20G<71 203 203 203 452 585 585 585> 770 94<367.5 395.5 367.5 412> 817 93<259 288>
VStem: 71 132<226 233 233 691> 452 133<233 691>
LayerCount: 2
Fore
SplineSet
386 770 m 0xec
 330 770 305 817 271 817 c 0
 247 817 234 801 218 772 c 1
 149 806 l 1
 173 863 213 910 269 910 c 0xdc
 328 910 350 864 385 864 c 0
 406 864 420 878 438 907 c 1
 506 873 l 1
 480 811 438 770 386 770 c 0xec
585 691 m 1xdc
 585 226 l 2
 585 87 496 -15 327 -15 c 0
 157 -15 71 84 71 226 c 2
 71 691 l 1
 203 691 l 1
 203 233 l 2
 203 136 242 88 327 88 c 0
 413 88 452 136 452 233 c 2
 452 691 l 1
 585 691 l 1xdc
EndSplineSet
EndChar
StartChar: uni016B
Encoding: 363 363 298
Width: 571
Flags: W
HStem: -15 97<239 252.5> 0 21G<385 496 385 385> 509 20G<69 197 197 197 368 496 496 496> 661 91<137 428 137 428>
VStem: 69 128<149 165 165 529> 368 128<157 529 0 529>
LayerCount: 2
Fore
SplineSet
428 661 m 1x7c
 137 661 l 1
 137 752 l 1
 428 752 l 1
 428 661 l 1x7c
496 529 m 1
 496 0 l 1
 385 0 l 1x7c
 378 74 l 1
 339 14 289 -15 216 -15 c 0
 120 -15 69 47 69 149 c 2
 69 529 l 1
 197 529 l 1
 197 165 l 2
 197 103 217 82 261 82 c 0
 305 82 341 111 368 157 c 1xbc
 368 529 l 1
 496 529 l 1
EndSplineSet
EndChar
StartChar: uni016F
Encoding: 367 367 302
Width: 571
Flags: W
HStem: -15 97<239 252.5> 0 21G<385 496 385 385> 509 20G<69 197 197 197 368 496 496 496> 613 68<268 297.5 268 321.5> 786 67<268 297.5>
VStem: 69 128<149 165 165 529> 155 79<716 750 716 766> 331 79<716 750> 368 128<157 529 0 529>
LayerCount: 2
Fore
SplineSet
283 853 m 0x7b
 360 853 410 799 410 733 c 0
 410 668 360 613 283 613 c 0
 205 613 155 668 155 733 c 0
 155 799 205 853 283 853 c 0x7b
283 786 m 0
 253 786 234 767 234 733 c 0
 234 699 253 681 283 681 c 0
 312 681 331 699 331 733 c 0
 331 767 312 786 283 786 c 0
496 529 m 1xbc80
 496 0 l 1
 385 0 l 1x7c80
 378 74 l 1
 339 14 289 -15 216 -15 c 0
 120 -15 69 47 69 149 c 2
 69 529 l 1
 197 529 l 1
 197 165 l 2
 197 103 217 82 261 82 c 0
 305 82 341 111 368 157 c 1
 368 529 l 1
 496 529 l 1xbc80
EndSplineSet
EndChar
StartChar: uni0173
Encoding: 371 371 306
Width: 571
Flags: W
HStem: -239 85<412 428> -15 97<239 252.5> 0 21G<497 497> 509 20G<69 197 197 197 368 496 496 496>
VStem: 69 128<149 165 165 529> 278 98<-123 -99.5> 368 128<157 529 2 529>
LayerCount: 2
Fore
SplineSet
376 -108 m 0xbc
 376 -138 393 -154 431 -154 c 0
 451 -154 468 -152 492 -147 c 1
 482 -232 l 1
 461 -236 441 -239 415 -239 c 0
 333 -239 278 -195 278 -130 c 0xdc
 278 -69 316 -25 384 9 c 1
 378 74 l 1
 339 14 289 -15 216 -15 c 0
 120 -15 69 47 69 149 c 2
 69 529 l 1
 197 529 l 1
 197 165 l 2
 197 103 217 82 261 82 c 0
 305 82 341 111 368 157 c 1xda
 368 529 l 1
 496 529 l 1
 496 2 l 1
 497 0 l 1xba
 397 -40 376 -76 376 -108 c 0xbc
EndSplineSet
EndChar
StartChar: uni0179
Encoding: 377 377 312
Width: 534
Flags: W
HStem: 0 108<177 485> 586 105<56 348 56 496>
VStem: 23 476<0 108 101 108>
LayerCount: 2
Fore
SplineSet
356 936 m 1
 406 836 l 1
 177 753 l 1
 144 819 l 1
 356 936 l 1
496 691 m 1
 496 589 l 1
 177 108 l 1
 499 108 l 1
 485 0 l 1
 23 0 l 1
 23 101 l 1
 348 586 l 1
 56 586 l 1
 56 691 l 1
 496 691 l 1
EndSplineSet
EndChar
StartChar: uni017D
Encoding: 381 381 316
Width: 534
Flags: W
HStem: 0 108<177 485> 586 105<56 348 56 496>
VStem: 23 476<0 108 101 108>
LayerCount: 2
Fore
SplineSet
404 928 m 1
 453 872 l 1
 314 752 l 1
 234 752 l 1
 95 872 l 1
 144 928 l 1
 274 845 l 1
 404 928 l 1
496 691 m 1
 496 589 l 1
 177 108 l 1
 499 108 l 1
 485 0 l 1
 23 0 l 1
 23 101 l 1
 348 586 l 1
 56 586 l 1
 56 691 l 1
 496 691 l 1
EndSplineSet
EndChar
StartChar: uni0188
Encoding: 392 392 327
Width: 478
Flags: W
HStem: -15 104<262 318 262 325> 443 101<262 292 209.5 324.5> 514 20G<344 344> 658 97<501 533.5>
VStem: 43 136<198 325.5 198 344.5> 344 118<534 590>
LayerCount: 2
Fore
SplineSet
505 755 m 0xdc
 562 755 603 736 631 717 c 1
 590 637 l 1
 567 650 548 658 519 658 c 0
 483 658 462 638 462 590 c 2
 462 482 l 1
 413 415 l 1
 381 432 349 443 300 443 c 0
 224 443 179 389 179 262 c 0
 179 134 226 89 298 89 c 0
 338 89 366 102 405 127 c 1
 462 46 l 1
 414 7 359 -15 291 -15 c 0
 138 -15 43 91 43 260 c 0
 43 429 139 544 280 544 c 0xdc
 304 544 326 541 344 534 c 1xbc
 344 591 l 2
 344 697 402 755 505 755 c 0xdc
EndSplineSet
EndChar
StartChar: uni018D
Encoding: 397 397 332
Width: 578
Flags: W
HStem: -220 93<250.5 302 250.5 350> 447 97<253.5 327.5>
VStem: 43 135<235 338 235 358> 354 126<-85 -50> 401 134<243 338.5>
LayerCount: 2
Fore
SplineSet
383 69 m 1xf0
 460 27 480 -15 480 -71 c 0
 480 -150 417 -220 283 -220 c 0
 202 -220 144 -196 98 -162 c 1
 159 -90 l 1
 196 -115 229 -127 272 -127 c 0
 332 -127 354 -101 354 -69 c 0xf0
 354 -31 337 -14 245 25 c 0
 110 80 43 148 43 284 c 0
 43 432 136 544 289 544 c 0
 439 544 535 449 535 289 c 0xe8
 535 187 476 114 383 69 c 1xf0
178 283 m 0xe8
 178 187 206 149 312 101 c 1
 373 146 401 201 401 285 c 0
 401 392 365 447 290 447 c 0
 217 447 178 393 178 283 c 0xe8
EndSplineSet
EndChar
StartChar: uni0192
Encoding: 402 402 337
Width: 358
Flags: W
HStem: -217 21G<34 34> 437 92<15 98 15 98 226 339> 658 97<272 312 222.5 313>
VStem: 98 128<39 47 47 437 529 585>
LayerCount: 2
Fore
SplineSet
300 658 m 0
 244 658 226 635 226 585 c 2
 226 529 l 1
 353 529 l 1
 339 437 l 1
 226 437 l 1
 226 47 l 2
 226 -115 152 -169 34 -217 c 1
 -7 -124 l 1
 61 -92 98 -65 98 39 c 2
 98 437 l 1
 15 437 l 1
 15 529 l 1
 98 529 l 1
 98 587 l 2
 98 683 161 755 284 755 c 0
 340 755 383 743 426 724 c 1
 389 638 l 1
 355 653 326 658 300 658 c 0
EndSplineSet
EndChar
StartChar: uni0194
Encoding: 404 404 339
Width: 562
Flags: W
HStem: -218 90<273 293 273 330.5> 671 20G<-5 137 137 137 432 567 567 567>
VStem: 146 107<-105.5 -81.5 -105.5 -78> 313 107<-105 -80.5>
LayerCount: 2
Fore
SplineSet
567 691 m 1
 355 82 l 1
 398 6 420 -43 420 -104 c 0
 420 -173 378 -218 283 -218 c 0
 189 -218 146 -173 146 -104 c 0
 146 -52 167 -2 211 82 c 1
 -5 691 l 1
 137 691 l 1
 284 170 l 1
 432 691 l 1
 567 691 l 1
313 -94 m 0
 313 -67 301 -35 283 7 c 1
 265 -34 253 -68 253 -95 c 0
 253 -116 263 -128 283 -128 c 0
 303 -128 313 -116 313 -94 c 0
EndSplineSet
EndChar
StartChar: uni0198
Encoding: 408 408 343
Width: 637
Flags: W
HStem: 0 21G<81 213 81 81 463 463 463 620> 607 99<537.5 561.5 498.5 564.5> 671 20G<81 213 213 213>
VStem: 81 132<0 691 0 691>
LayerCount: 2
Fore
SplineSet
463 0 m 1xb0
 219 369 l 1
 371 600 l 2
 419 675 460 706 537 706 c 0xd0
 586 706 619 689 643 670 c 1xb0
 604 591 l 1
 591 599 577 607 552 607 c 0
 523 607 506 599 475 552 c 2xd0
 361 378 l 1
 620 0 l 1
 463 0 l 1xb0
213 691 m 1xb0
 213 0 l 1
 81 0 l 1
 81 691 l 1
 213 691 l 1xb0
EndSplineSet
EndChar
StartChar: uni01A1
Encoding: 417 417 352
Width: 611
Flags: W
HStem: -15 97<254.5 329.5 254.5 370> 447 97<255.5 330>
VStem: 43 135<201.5 327.5 201.5 348> 406 135<202 292.5 181.5 328> 521 94<508.5 539.5>
LayerCount: 2
Fore
SplineSet
615 523 m 0xe8
 615 458 578 420 514 408 c 1
 532 368 541 320 541 265 c 0xf0
 541 98 448 -15 292 -15 c 0
 136 -15 43 91 43 265 c 0
 43 431 136 544 293 544 c 0
 369 544 430 519 473 473 c 1
 507 477 521 493 521 524 c 0
 521 555 515 573 507 593 c 1
 596 608 l 1
 606 589 615 562 615 523 c 0xe8
292 82 m 0xf0
 367 82 406 139 406 265 c 0
 406 391 367 447 293 447 c 0
 218 447 178 390 178 265 c 0
 178 138 217 82 292 82 c 0xf0
EndSplineSet
EndChar
StartChar: uni01A3
Encoding: 419 419 354
Width: 810
Flags: W
HStem: -218 21G<735 735> -204 21G<607 607> -15 97<254.5 329.5 254.5 370> 447 97<255.5 318.5 214.5 330>
VStem: 43 135<201.5 327.5 201.5 348> 406 135<202 300 181.5 328> 607 128<-204 367 -218 375 -218 400.5>
LayerCount: 2
Fore
SplineSet
560 544 m 0x7e
 670 544 735 483 735 367 c 2
 735 -218 l 1xbe
 607 -204 l 1
 607 375 l 2
 607 426 584 448 544 448 c 0
 527 448 511 445 495 440 c 1
 524 395 541 335 541 265 c 0
 541 98 448 -15 292 -15 c 0
 136 -15 43 91 43 265 c 0
 43 431 136 544 293 544 c 0
 344 544 389 532 426 508 c 1
 468 532 508 544 560 544 c 0x7e
292 82 m 0
 367 82 406 139 406 265 c 0
 406 391 367 447 293 447 c 0
 218 447 178 390 178 265 c 0
 178 138 217 82 292 82 c 0
EndSplineSet
EndChar
StartChar: uni01A6
Encoding: 422 422 357
Width: 611
Flags: W
HStem: 0 21G<81 213 81 81> 159 95<213 295 295 297 213 295> 477 96<213 287 213 284> 671 20G<81 213 213 213>
VStem: 81 132<0 159 0 254 254 477 573 691> 423 138<328.5 407.5>
LayerCount: 2
Fore
SplineSet
450 -118 m 1
 297 159 l 1
 213 159 l 1
 213 0 l 1
 81 0 l 1
 81 691 l 1
 213 691 l 1
 213 573 l 1
 287 573 l 2
 468 573 561 507 561 370 c 0
 561 276 515 220 421 183 c 1
 602 -118 l 1
 450 -118 l 1
213 477 m 1
 213 254 l 1
 295 254 l 2
 377 254 423 287 423 370 c 0
 423 445 380 477 284 477 c 2
 213 477 l 1
EndSplineSet
EndChar
StartChar: uni01A8
Encoding: 424 424 359
Width: 464
Flags: W
HStem: -15 95<218.5 269.5 218.5 283> 449 95<203 253.5>
VStem: 25 134<125 167 125 198.5> 305 130<378 412.5>
LayerCount: 2
Fore
SplineSet
240 544 m 0
 362 544 435 478 435 391 c 0
 435 306 383 265 275 234 c 0
 178 207 159 188 159 146 c 0
 159 104 194 80 243 80 c 0
 296 80 345 101 386 131 c 1
 450 60 l 1
 400 16 328 -15 238 -15 c 0
 125 -15 25 43 25 151 c 0
 25 246 87 287 195 315 c 0
 286 340 305 359 305 397 c 0
 305 428 279 449 228 449 c 0
 178 449 136 434 91 407 c 1
 42 481 l 1
 97 520 161 544 240 544 c 0
EndSplineSet
EndChar
StartChar: uni01AB
Encoding: 427 427 362
Width: 375
Flags: W
HStem: -217 96<181 218.5 181 259.5> -15 97<241 284.5> 437 92<5 88 5 88 216 326>
VStem: 88 128<158 437 529 646 646 646> 264 116<-54 -43 -43 -12 -12 -12>
LayerCount: 2
Fore
SplineSet
343 94 m 1
 380 25 l 1
 380 -43 l 2
 380 -159 313 -217 206 -217 c 0
 147 -217 103 -198 74 -177 c 1
 120 -99 l 1
 144 -112 164 -121 198 -121 c 0
 239 -121 264 -102 264 -54 c 2
 264 -12 l 1
 257 -14 249 -15 241 -15 c 0
 144 -14 88 45 88 158 c 2
 88 437 l 1
 5 437 l 1
 5 529 l 1
 88 529 l 1
 88 646 l 1
 216 661 l 1
 216 529 l 1
 339 529 l 1
 326 437 l 1
 216 437 l 1
 216 153 l 2
 216 103 233 82 274 82 c 0
 295 82 314 85 343 94 c 1
EndSplineSet
EndChar
StartChar: uni01B3
Encoding: 435 435 370
Width: 611
Flags: W
HStem: 0 21G<220 220 220 354> 610 96<543.5 568.5 502.5 571> 671 20G<-2 144 144 144>
VStem: 220 134<0 261 261 261>
LayerCount: 2
Fore
SplineSet
220 0 m 1xb0
 220 261 l 1
 -2 691 l 1
 144 691 l 1xb0
 290 370 l 1
 378 575 l 2
 415 669 461 706 544 706 c 0
 593 706 627 690 658 668 c 1
 617 592 l 1
 602 602 583 610 559 610 c 0
 528 610 511 596 489 549 c 2xd0
 354 262 l 1
 354 0 l 1
 220 0 l 1xb0
EndSplineSet
EndChar
StartChar: uni01C0
Encoding: 448 448 383
Width: 275
Flags: W
HStem: 0 21G<81 194 81 81> 721 20G<81 81> 733 20G<194 194>
VStem: 81 113<0 741 741 741>
LayerCount: 2
Fore
SplineSet
194 753 m 1xb0
 194 0 l 1
 81 0 l 1
 81 741 l 1xd0
 194 753 l 1xb0
EndSplineSet
EndChar
StartChar: uni01C3
Encoding: 451 451 386
Width: 323
Flags: W
HStem: -15 162<138.5 184> 721 20G<104 104> 733 20G<218 218>
VStem: 81 161<44 88.5> 104 114<224 741 741 741>
LayerCount: 2
Fore
SplineSet
218 753 m 1xa8
 218 224 l 1
 104 224 l 1
 104 741 l 1xc8
 218 753 l 1xa8
161 147 m 0xb0
 207 147 242 111 242 66 c 0
 242 22 207 -15 161 -15 c 0
 116 -15 81 22 81 66 c 0
 81 111 116 147 161 147 c 0xb0
EndSplineSet
EndChar
StartChar: uni01C6
Encoding: 454 454 389
Width: 1036
Flags: W
HStem: -15 97<248.5 278> 0 100<757 1005> 429 100<632 867 632 1013> 448 96<255 284 190.5 309.5> 721 20G<517 517> 724 20G<640 640 997 997> 735 20G<389 389>
VStem: 43 135<197 328.5 197 345.5> 389 128<150 392 392 392 487 741 0 755 0 755>
LayerCount: 2
Fore
SplineSet
859 619 m 1x6380
 779 619 l 1
 640 744 l 1
 689 800 l 1
 818 712 l 1
 949 800 l 1
 997 744 l 1x9580
 859 619 l 1x6380
389 487 m 1
 389 755 l 1x6380
 517 741 l 1
 517 0 l 1
 404 0 l 1x6980
 395 67 l 1
 363 19 312 -15 244 -15 c 0
 112 -15 43 96 43 264 c 0
 43 427 125 544 256 544 c 0
 312 544 356 520 389 487 c 1
757 100 m 1
 1018 100 l 1
 1005 0 l 1
 610 0 l 1
 610 92 l 1
 867 429 l 1
 632 429 l 1
 632 529 l 1
 1013 529 l 1
 1013 437 l 1
 757 100 l 1
280 82 m 0x9380
 327 82 359 105 389 150 c 1
 389 392 l 1
 361 426 331 448 288 448 c 0
 222 448 178 392 178 265 c 0
 178 129 217 82 280 82 c 0x9380
EndSplineSet
EndChar
StartChar: uni01C8
Encoding: 456 456 391
Width: 775
Flags: W
HStem: -217 21G<507 507> 0 108<213 475> 509 20G<572 700 700 700> 642 155<612.5 660> 671 20G<81 213 213 213>
VStem: 81 132<108 691 108 691 108 691> 556 160<697.5 741> 572 128<39 47 47 529>
LayerCount: 2
Fore
SplineSet
636 797 m 0xf6
 684 797 716 763 716 719 c 0
 716 676 684 642 636 642 c 0
 589 642 556 676 556 719 c 0
 556 763 589 797 636 797 c 0xf6
213 691 m 1xed
 213 108 l 1
 490 108 l 1
 475 0 l 1
 81 0 l 1
 81 691 l 1
 213 691 l 1xed
700 529 m 1
 700 47 l 2
 700 -115 626 -169 507 -217 c 1
 466 -124 l 1
 535 -92 572 -65 572 39 c 2
 572 529 l 1
 700 529 l 1
EndSplineSet
EndChar
StartChar: uni01CC
Encoding: 460 460 395
Width: 855
Flags: W
HStem: -217 21G<587 587> 0 21G<75 203 75 75 379 507 379 379> 448 96<323.5 334> 509 20G<75 186 186 186 652 780 780 780> 642 155<692.5 740>
VStem: 75 128<0 368 0 529> 379 128<0 363 363 383 0 396> 636 161<697.5 741> 652 128<39 47 47 529>
LayerCount: 2
Fore
SplineSet
716 642 m 0xef
 669 642 636 676 636 719 c 0
 636 763 669 797 716 797 c 0
 764 797 797 763 797 719 c 0
 797 676 764 642 716 642 c 0xef
357 544 m 0
 452 544 507 484 507 383 c 2
 507 0 l 1
 379 0 l 1
 379 363 l 2
 379 429 354 448 314 448 c 0
 268 448 234 417 203 368 c 1xee80
 203 0 l 1
 75 0 l 1
 75 529 l 1
 186 529 l 1xde80
 196 460 l 1
 237 513 290 544 357 544 c 0
652 39 m 2xde80
 652 529 l 1
 780 529 l 1
 780 47 l 2
 780 -115 706 -169 587 -217 c 1
 546 -124 l 1
 615 -92 652 -65 652 39 c 2xde80
EndSplineSet
EndChar
StartChar: uni01CF
Encoding: 463 463 398
Width: 294
Flags: W
HStem: 0 21G<81 213 81 81> 671 20G<81 213 213 213>
VStem: 81 132<0 691 0 691>
LayerCount: 2
Fore
SplineSet
277 928 m 1
 326 872 l 1
 187 752 l 1
 107 752 l 1
 -32 872 l 1
 17 928 l 1
 147 845 l 1
 277 928 l 1
213 691 m 1
 213 0 l 1
 81 0 l 1
 81 691 l 1
 213 691 l 1
EndSplineSet
EndChar
StartChar: uni01D2
Encoding: 466 466 401
Width: 584
Flags: W
HStem: -15 97<254.5 329.5 254.5 370> 447 97<255.5 330> 724 20G<113 113 471 471>
VStem: 43 135<201.5 327.5 201.5 348> 406 135<202 328>
LayerCount: 2
Fore
SplineSet
422 800 m 1
 471 744 l 1
 332 619 l 1
 252 619 l 1
 113 744 l 1
 162 800 l 1
 292 712 l 1
 422 800 l 1
293 544 m 0
 449 544 541 438 541 265 c 0
 541 98 448 -15 292 -15 c 0
 136 -15 43 91 43 265 c 0
 43 431 136 544 293 544 c 0
293 447 m 0
 218 447 178 390 178 265 c 0
 178 138 217 82 292 82 c 0
 367 82 406 139 406 265 c 0
 406 391 367 447 293 447 c 0
EndSplineSet
EndChar
StartChar: uni01D3
Encoding: 467 467 402
Width: 656
Flags: W
HStem: -15 103<284.5 370 284.5 411.5> 671 20G<71 203 203 203 452 585 585 585>
VStem: 71 132<226 233 233 691> 452 133<233 691>
LayerCount: 2
Fore
SplineSet
458 928 m 1
 507 872 l 1
 368 752 l 1
 288 752 l 1
 149 872 l 1
 198 928 l 1
 328 845 l 1
 458 928 l 1
585 691 m 1
 585 226 l 2
 585 87 496 -15 327 -15 c 0
 157 -15 71 84 71 226 c 2
 71 691 l 1
 203 691 l 1
 203 233 l 2
 203 136 242 88 327 88 c 0
 413 88 452 136 452 233 c 2
 452 691 l 1
 585 691 l 1
EndSplineSet
EndChar
StartChar: uni01D8
Encoding: 472 472 407
Width: 571
Flags: W
HStem: -15 97<239 252.5> 0 21G<385 496 385 385> 509 20G<69 197 197 197 368 496 496 496> 611 139<148.5 188 377 416.5>
VStem: 69 128<149 165 165 529> 98 140<661.5 700> 327 140<661.5 700> 368 128<157 529 0 529>
LayerCount: 2
Fore
SplineSet
359 924 m 1x79
 431 854 l 1
 283 720 l 1
 233 765 l 1
 359 924 l 1x79
169 750 m 0x76
 207 750 238 719 238 681 c 0
 238 642 207 611 169 611 c 0
 128 611 98 642 98 681 c 0
 98 719 128 750 169 750 c 0x76
397 750 m 0
 436 750 467 719 467 681 c 0
 467 642 436 611 397 611 c 0
 357 611 327 642 327 681 c 0
 327 719 357 750 397 750 c 0
496 529 m 1xb9
 496 0 l 1
 385 0 l 1x79
 378 74 l 1
 339 14 289 -15 216 -15 c 0
 120 -15 69 47 69 149 c 2
 69 529 l 1
 197 529 l 1
 197 165 l 2
 197 103 217 82 261 82 c 0
 305 82 341 111 368 157 c 1
 368 529 l 1
 496 529 l 1xb9
EndSplineSet
EndChar
StartChar: uni01DB
Encoding: 475 475 410
Width: 656
Flags: W
HStem: -15 103<284.5 370 284.5 411.5> 671 20G<71 203 203 203 452 585 585 585> 747 138<194 233.5 422.5 462>
VStem: 71 132<226 233 233 691> 143 140<796.5 835.5> 372 140<796.5 835.5> 452 133<233 691>
LayerCount: 2
Fore
SplineSet
254 1059 m 1xf2
 379 901 l 1
 329 855 l 1
 182 989 l 1
 254 1059 l 1xf2
214 885 m 0
 253 885 283 855 283 816 c 0xea
 283 777 253 747 214 747 c 0
 174 747 143 777 143 816 c 0
 143 855 174 885 214 885 c 0
442 885 m 0
 482 885 512 855 512 816 c 0xf2
 512 777 482 747 442 747 c 0
 403 747 372 777 372 816 c 0xf4
 372 855 403 885 442 885 c 0
585 691 m 1
 585 226 l 2
 585 87 496 -15 327 -15 c 0
 157 -15 71 84 71 226 c 2
 71 691 l 1
 203 691 l 1
 203 233 l 2
 203 136 242 88 327 88 c 0
 413 88 452 136 452 233 c 2
 452 691 l 1
 585 691 l 1
EndSplineSet
EndChar
StartChar: uni01E0
Encoding: 480 480 415
Width: 583
Flags: W
HStem: 0 21G<-5 132 -5 -5 447 587 447 447> 160 100<201 377 201 404 175 377> 590 101<289 289> 671 20G<210 373 373 373> 738 155<268.5 316> 924 91<149 440 149 440>
VStem: 149 291<924 1015 924 1015> 212 161<793.5 837>
LayerCount: 2
Fore
SplineSet
440 1015 m 1xd6
 440 924 l 1
 149 924 l 1
 149 1015 l 1
 440 1015 l 1xd6
212 815 m 0xdd
 212 859 245 893 292 893 c 0
 340 893 373 859 373 815 c 0
 373 772 340 738 292 738 c 0
 245 738 212 772 212 815 c 0xdd
447 0 m 1
 404 160 l 1
 175 160 l 1
 132 0 l 1
 -5 0 l 1
 210 691 l 1
 373 691 l 1
 587 0 l 1
 447 0 l 1
201 260 m 1
 377 260 l 1
 289 590 l 1xe5
 201 260 l 1
EndSplineSet
EndChar
StartChar: uni01E3
Encoding: 483 483 418
Width: 853
Flags: W
HStem: -15 93<221.5 247.5> -15 97<574 633 574 638> 225 83<480 688 479 811 480 480> 248 77<280 295 295 347 280 348> 446 98<239.5 282> 453 91<554.5 620.5> 661 91<282 573 282 573>
VStem: 35 136<131 187.5 131 205.5> 282 291<661 752 661 752> 347 132<308 355 308 389> 688 126<308 314 314 314>
LayerCount: 2
Fore
SplineSet
573 752 m 1x67a0
 573 661 l 1
 282 661 l 1
 282 752 l 1
 573 752 l 1x67a0
814 277 m 0
 814 260 813 239 811 225 c 1
 480 225 l 1x6760
 489 117 539 82 609 82 c 0
 657 82 695 97 741 129 c 1
 795 56 l 1
 742 14 678 -15 598 -15 c 0
 507 -15 439 20 397 78 c 1
 348 9 286 -15 209 -15 c 0
 101 -15 35 52 35 148 c 0
 35 263 123 325 280 325 c 2
 347 325 l 1
 347 355 l 2
 347 423 316 446 248 446 c 0
 212 446 161 436 107 418 c 1x5b60
 78 506 l 1
 143 531 210 544 269 544 c 0
 351 544 400 515 430 470 c 1
 467 516 519 544 590 544 c 0
 729 544 814 444 814 277 c 0
688 308 m 1xa760
 688 314 l 2
 687 401 657 453 584 453 c 0
 524 453 487 413 479 308 c 1
 688 308 l 1xa760
246 78 m 0
 293 78 328 104 361 155 c 1
 353 183 349 212 348 244 c 2
 348 248 l 1
 295 248 l 2x9760
 213 248 171 219 171 156 c 0
 171 106 197 78 246 78 c 0
EndSplineSet
EndChar
StartChar: uni01E8
Encoding: 488 488 423
Width: 613
Flags: W
HStem: 0 21G<81 213 81 81 463 463 463 620> 671 20G<81 213 213 213 458 601 601 601>
VStem: 81 132<0 691 0 691>
LayerCount: 2
Fore
SplineSet
459 928 m 1
 508 872 l 1
 369 752 l 1
 289 752 l 1
 150 872 l 1
 199 928 l 1
 329 845 l 1
 459 928 l 1
213 691 m 1
 213 0 l 1
 81 0 l 1
 81 691 l 1
 213 691 l 1
601 691 m 1
 362 378 l 1
 620 0 l 1
 463 0 l 1
 219 369 l 1
 458 691 l 1
 601 691 l 1
EndSplineSet
EndChar
StartChar: uni01E9
Encoding: 489 489 424
Width: 532
Flags: W
HStem: 0 21G<75 203 75 75 390 390 390 537> 509 20G<385 520 520 520> 721 20G<75 75> 735 20G<203 203>
VStem: 75 128<0 741 741 741>
LayerCount: 2
Fore
SplineSet
417 977 m 1xd8
 466 921 l 1
 327 801 l 1
 247 801 l 1
 108 921 l 1
 157 977 l 1
 287 894 l 1
 417 977 l 1xd8
203 755 m 1
 203 0 l 1
 75 0 l 1
 75 741 l 1xe8
 203 755 l 1
520 529 m 1
 344 296 l 1
 537 0 l 1
 390 0 l 1
 208 289 l 1
 385 529 l 1
 520 529 l 1
EndSplineSet
EndChar
StartChar: uni01F7
Encoding: 503 503 438
Width: 596
Flags: W
HStem: 0 21G<81 213 81 81> 606 100<339.5 362> 671 20G<81 213 213 213>
VStem: 81 132<0 202 0 300 300 557 643 691> 427 138<465 541.5>
LayerCount: 2
Fore
SplineSet
372 706 m 0xd8
 477 706 565 635 565 514 c 0
 565 356 441 288 294 232 c 2
 213 202 l 1
 213 0 l 1
 81 0 l 1
 81 691 l 1
 213 691 l 1xb8
 213 643 l 1
 254 684 307 706 372 706 c 0xd8
274 325 m 2
 367 364 427 421 427 509 c 0
 427 574 391 606 333 606 c 0
 287 606 247 589 213 557 c 1
 213 300 l 1
 274 325 l 2
EndSplineSet
EndChar
StartChar: uni01F8
Encoding: 504 504 439
Width: 672
Flags: W
HStem: 0 21G<81 201 81 81 420 591 420 420> 0 131<489 489 489 591 420 489> 559 132<183 183> 671 20G<81 248 248 248 471 591 591 591>
VStem: 81 120<0 282 0 691> 471 120<367 691 0 691>
LayerCount: 2
Fore
SplineSet
256 936 m 1x9c
 468 819 l 1
 435 753 l 1
 206 836 l 1
 256 936 l 1x9c
591 691 m 1
 591 0 l 1
 420 0 l 1
 183 559 l 1xac
 190 498 201 410 201 282 c 2
 201 0 l 1
 81 0 l 1
 81 691 l 1
 248 691 l 1
 489 131 l 1x5c
 483 169 471 269 471 367 c 2
 471 691 l 1
 591 691 l 1
EndSplineSet
EndChar
StartChar: uni0200
Encoding: 512 512 447
Width: 583
Flags: W
HStem: 0 21G<-5 132 -5 -5 447 587 447 447> 160 100<201 377 201 404 175 377> 590 101<289 289> 671 20G<210 373 373 373>
VStem: -5 592<0 0>
LayerCount: 2
Fore
SplineSet
257 787 m 1xd8
 186 755 l 1
 72 925 l 1
 165 973 l 1
 257 787 l 1xd8
413 790 m 1
 341 760 l 1
 236 927 l 1
 330 973 l 1
 413 790 l 1
447 0 m 1
 404 160 l 1
 175 160 l 1
 132 0 l 1
 -5 0 l 1
 210 691 l 1
 373 691 l 1
 587 0 l 1
 447 0 l 1
201 260 m 1
 377 260 l 1
 289 590 l 1xe8
 201 260 l 1
EndSplineSet
EndChar
StartChar: uni0204
Encoding: 516 516 451
Width: 530
Flags: W
HStem: 0 99<213 486 213 486> 302 98<213 435 213 435> 593 98<213 468 213 213>
VStem: 81 132<99 302 400 593>
LayerCount: 2
Fore
SplineSet
157 973 m 1
 249 787 l 1
 178 755 l 1
 64 925 l 1
 157 973 l 1
322 973 m 1
 405 790 l 1
 333 760 l 1
 228 927 l 1
 322 973 l 1
482 691 m 1
 468 593 l 1
 213 593 l 1
 213 400 l 1
 435 400 l 1
 435 302 l 1
 213 302 l 1
 213 99 l 1
 486 99 l 1
 486 0 l 1
 81 0 l 1
 81 691 l 1
 482 691 l 1
EndSplineSet
EndChar
StartChar: uni0208
Encoding: 520 520 455
Width: 294
Flags: W
HStem: 0 21G<81 213 81 81> 671 20G<81 213 213 213>
VStem: 81 132<0 691 0 691>
LayerCount: 2
Fore
SplineSet
20 973 m 1
 112 787 l 1
 41 755 l 1
 -73 925 l 1
 20 973 l 1
185 973 m 1
 268 790 l 1
 196 760 l 1
 91 927 l 1
 185 973 l 1
213 691 m 1
 213 0 l 1
 81 0 l 1
 81 691 l 1
 213 691 l 1
EndSplineSet
EndChar
StartChar: uni0214
Encoding: 532 532 467
Width: 656
Flags: W
HStem: -15 103<284.5 370 284.5 411.5> 671 20G<71 203 203 203 452 585 585 585>
VStem: 71 132<226 233 233 691> 452 133<233 691>
LayerCount: 2
Fore
SplineSet
201 973 m 1
 293 787 l 1
 222 755 l 1
 108 925 l 1
 201 973 l 1
366 973 m 1
 449 790 l 1
 377 760 l 1
 272 927 l 1
 366 973 l 1
585 691 m 1
 585 226 l 2
 585 87 496 -15 327 -15 c 0
 157 -15 71 84 71 226 c 2
 71 691 l 1
 203 691 l 1
 203 233 l 2
 203 136 242 88 327 88 c 0
 413 88 452 136 452 233 c 2
 452 691 l 1
 585 691 l 1
EndSplineSet
EndChar
StartChar: uni0216
Encoding: 534 534 469
Width: 656
Flags: W
HStem: -15 103<284.5 370 284.5 411.5> 671 20G<71 203 203 203 452 585 585 585> 846 92<304 350>
VStem: 71 132<226 233 233 691> 452 133<233 691>
LayerCount: 2
Fore
SplineSet
327 938 m 0
 421 938 483 874 491 784 c 1
 415 769 l 1
 403 818 373 846 327 846 c 0
 281 846 253 818 240 769 c 1
 165 784 l 1
 173 874 233 938 327 938 c 0
585 691 m 1
 585 226 l 2
 585 87 496 -15 327 -15 c 0
 157 -15 71 84 71 226 c 2
 71 691 l 1
 203 691 l 1
 203 233 l 2
 203 136 242 88 327 88 c 0
 413 88 452 136 452 233 c 2
 452 691 l 1
 585 691 l 1
EndSplineSet
EndChar
StartChar: uni0218
Encoding: 536 536 471
Width: 560
Flags: W
HStem: -15 102<227 300 227 348.5> 605 101<257 316.5>
VStem: 45 136<498 550 498 572.5> 208 139<-151 -121> 390 138<156.5 219>
LayerCount: 2
Fore
SplineSet
280 706 m 0
 381 706 448 676 508 621 c 1
 443 546 l 1
 393 587 345 605 288 605 c 0
 226 605 181 577 181 523 c 0
 181 473 208 451 323 415 c 0
 444 377 528 327 528 197 c 0
 528 73 431 -15 266 -15 c 0
 156 -15 74 24 17 80 c 1
 85 156 l 1
 136 113 191 87 263 87 c 0
 337 87 390 123 390 190 c 0
 390 248 361 274 253 307 c 0
 108 352 45 410 45 515 c 0
 45 630 144 706 280 706 c 0
278 -72 m 0xf8
 317 -72 347 -101 347 -140 c 0
 347 -162 340 -180 320 -221 c 2
 276 -312 l 1
 209 -312 l 1
 237 -196 l 1
 220 -183 208 -164 208 -140 c 0
 208 -102 238 -72 278 -72 c 0xf8
EndSplineSet
EndChar
StartChar: uni021C
Encoding: 540 540 475
Width: 513
Flags: W
HStem: -6 21G<57 57> 305 99<148 201 132 203> 606 100<191 253.5>
VStem: 319 137<477 536> 338 140<157 234.5>
LayerCount: 2
Fore
SplineSet
232 706 m 0xf0
 377 706 456 627 456 521 c 0xf0
 456 433 403 378 311 358 c 1
 407 348 478 300 478 195 c 0
 478 62 361 -55 68 -108 c 1
 57 -6 l 1
 283 48 338 114 338 200 c 0xe8
 338 269 293 305 201 305 c 2
 132 305 l 1
 148 404 l 1
 203 404 l 2
 275 404 319 441 319 508 c 0
 319 564 290 606 217 606 c 0
 165 606 117 586 67 546 c 1
 3 617 l 1
 67 676 143 706 232 706 c 0xf0
EndSplineSet
EndChar
StartChar: uni0225
Encoding: 549 549 484
Width: 440
Flags: W
HStem: -218 97<217.5 253.5 217.5 296.5> 0 100<165 297> 429 100<40 275 40 421>
VStem: 297 123<-54 -43 -43 0 0 0>
LayerCount: 2
Fore
SplineSet
421 529 m 1
 421 437 l 1
 165 100 l 1
 420 100 l 1
 420 -43 l 2
 420 -159 349 -218 244 -218 c 0
 184 -218 143 -199 115 -177 c 1
 160 -100 l 1
 183 -113 201 -121 234 -121 c 0
 273 -121 297 -101 297 -54 c 2
 297 0 l 1
 18 0 l 1
 18 92 l 1
 275 429 l 1
 40 429 l 1
 40 529 l 1
 421 529 l 1
EndSplineSet
EndChar
StartChar: uni022B
Encoding: 555 555 490
Width: 584
Flags: W
HStem: -15 97<254.5 329.5 254.5 370> 447 97<255.5 330> 612 138<161 200.5 382.5 422> 796 92<146 437 146 437>
VStem: 43 135<201.5 327.5 201.5 348> 110 140<661.5 700> 146 291<796 888 796 888> 332 140<661.5 700> 406 135<202 328>
LayerCount: 2
Fore
SplineSet
437 796 m 1xf2
 146 796 l 1
 146 888 l 1
 437 888 l 1
 437 796 l 1xf2
181 750 m 0xf5
 220 750 250 719 250 681 c 0
 250 642 220 612 181 612 c 0
 141 612 110 642 110 681 c 0
 110 719 141 750 181 750 c 0xf5
402 750 m 0
 442 750 472 719 472 681 c 0
 472 642 442 612 402 612 c 0
 363 612 332 642 332 681 c 0
 332 719 363 750 402 750 c 0
293 544 m 0xf880
 449 544 541 438 541 265 c 0
 541 98 448 -15 292 -15 c 0
 136 -15 43 91 43 265 c 0
 43 431 136 544 293 544 c 0xf880
293 447 m 0
 218 447 178 390 178 265 c 0
 178 138 217 82 292 82 c 0
 367 82 406 139 406 265 c 0
 406 391 367 447 293 447 c 0
EndSplineSet
EndChar
StartChar: uni022E
Encoding: 558 558 493
Width: 691
Flags: W
HStem: -15 101<295.5 397.5 295.5 438.5> 605 101<294.5 398> 768 155<321.5 369>
VStem: 43 139<252 438 252 458.5> 265 161<823.5 867> 509 139<252.5 438.5>
LayerCount: 2
Fore
SplineSet
345 923 m 0
 393 923 426 889 426 845 c 0
 426 802 393 768 345 768 c 0
 298 768 265 802 265 845 c 0
 265 889 298 923 345 923 c 0
346 706 m 0
 531 706 648 577 648 346 c 0
 648 118 531 -15 346 -15 c 0
 161 -15 43 114 43 345 c 0
 43 572 161 706 346 706 c 0
346 605 m 0
 243 605 182 531 182 345 c 0
 182 159 245 86 346 86 c 0
 449 86 509 159 509 346 c 0
 509 531 450 605 346 605 c 0
EndSplineSet
EndChar
StartChar: uni0233
Encoding: 563 563 498
Width: 506
Flags: W
HStem: -218 21G<58 58> 0 21G<170 214 170 170> 509 20G<2 138 138 138 373 505 505 505> 661 91<107 398 107 398>
VStem: 107 291<661 752 661 752>
LayerCount: 2
Fore
SplineSet
398 661 m 1
 107 661 l 1
 107 752 l 1
 398 752 l 1
 398 661 l 1
505 529 m 1
 333 -2 l 2
 293 -126 215 -206 58 -218 c 1
 45 -125 l 1
 150 -109 184 -75 214 0 c 1
 170 0 l 1
 2 529 l 1
 138 529 l 1
 253 85 l 1
 373 529 l 1
 505 529 l 1
EndSplineSet
EndChar
StartChar: uni023A
Encoding: 570 570 505
Width: 583
Flags: W
HStem: 0 21G<-5 123 -5 -5 456 587 456 456> 160 94<193 230 167 255 311 386 193 285> 604 87<289 289> 671 20G<210 371 371 371> 721 20G<440 440> 733 20G<388 388>
VStem: -5 592<0 0>
LayerCount: 2
Fore
SplineSet
587 0 m 1xd6
 456 0 l 1
 412 160 l 1
 285 160 l 1
 224 -72 l 1
 172 -60 l 1
 230 160 l 1
 167 160 l 1
 123 0 l 1
 -5 0 l 1
 210 691 l 1
 371 691 l 1
 388 753 l 1xd6
 440 741 l 1xda
 402 599 l 1
 402 598 l 1
 587 0 l 1xd6
193 254 m 1
 255 254 l 1
 319 496 l 1
 289 604 l 1xe6
 193 254 l 1
311 254 m 1
 386 254 l 1
 347 394 l 1
 347 393 l 1
 311 254 l 1
EndSplineSet
EndChar
StartChar: uni0241
Encoding: 577 577 512
Width: 489
Flags: W
HStem: 0 21G<148 148 148 281> 606 100<192.5 256>
VStem: 148 133<0 276 0 325 0 325> 331 138<443 522>
LayerCount: 2
Fore
SplineSet
148 0 m 1
 148 325 l 1
 211 342 l 2
 290 364 331 400 331 486 c 0
 331 558 292 606 220 606 c 0
 165 606 121 586 73 546 c 1
 7 617 l 1
 71 676 143 706 233 706 c 0
 379 706 469 618 469 492 c 0
 469 365 396 315 305 284 c 2
 281 276 l 1
 281 0 l 1
 148 0 l 1
EndSplineSet
EndChar
StartChar: uni0242
Encoding: 578 578 513
Width: 453
Flags: W
HStem: 0 21G<115 115 115 243> 444 100<160 218>
VStem: 115 128<0 151 0 200 0 200> 285 135<305.5 370>
LayerCount: 2
Fore
SplineSet
115 0 m 1
 115 200 l 1
 176 217 l 2
 244 235 285 271 285 340 c 0
 285 400 249 444 187 444 c 0
 133 444 102 425 64 395 c 1
 0 464 l 1
 54 514 112 544 197 544 c 0
 333 544 420 458 420 342 c 0
 420 232 352 182 270 158 c 2
 243 151 l 1
 243 0 l 1
 115 0 l 1
EndSplineSet
EndChar
StartChar: uni0244
Encoding: 580 580 515
Width: 685
Flags: W
HStem: -15 103<299.5 385 299.5 426.5> 504 81<23 85 23 85 218 467 600 662> 504 187<23 218 23 218 85 218 85 467>
VStem: 85 133<226 233 233 504 585 691> 467 133<233 504 585 691>
LayerCount: 2
Fore
SplineSet
662 585 m 1xd8
 662 504 l 1
 600 504 l 1
 600 226 l 2
 600 87 511 -15 342 -15 c 0
 172 -15 85 84 85 226 c 2
 85 504 l 1
 23 504 l 1xb8
 23 585 l 1
 85 585 l 1xd8
 85 691 l 1
 218 691 l 1xb8
 218 585 l 1
 467 585 l 1xd8
 467 691 l 1
 600 691 l 1xb8
 600 585 l 1
 662 585 l 1xd8
467 233 m 2
 467 504 l 1
 218 504 l 1
 218 233 l 2
 218 136 257 88 342 88 c 0
 428 88 467 136 467 233 c 2
EndSplineSet
EndChar
StartChar: uni0394
Encoding: 916 916 530
Width: 592
Flags: W
HStem: 0 101<157 431 157 596> 589 102<294 294> 671 20G<215 378 378 378>
VStem: -5 601<0 0>
LayerCount: 2
Fore
SplineSet
378 691 m 1xb0
 596 0 l 1
 -5 0 l 1
 215 691 l 1
 378 691 l 1xb0
294 589 m 1xd0
 157 101 l 1
 431 101 l 1
 294 589 l 1xd0
EndSplineSet
EndChar
StartChar: uni0399
Encoding: 921 921 535
Width: 294
Flags: W
HStem: 0 21G<81 213 81 81> 671 20G<81 213 213 213>
VStem: 81 132<0 691 0 691>
LayerCount: 2
Fore
SplineSet
213 691 m 1
 213 0 l 1
 81 0 l 1
 81 691 l 1
 213 691 l 1
EndSplineSet
EndChar
StartChar: uni03B1
Encoding: 945 945 551
Width: 595
Flags: W
HStem: -15 96<236.5 284> 448 96<239.5 296> 509 20G<435 547 547 547>
VStem: 43 132<196.5 323 196.5 342.5>
LayerCount: 2
Fore
SplineSet
254 544 m 0xd0
 342 544 395 499 414 394 c 1
 435 529 l 1
 547 529 l 1xb0
 484 255 l 1
 510 137 l 2
 518 107 532 92 562 84 c 1
 520 -15 l 1
 466 -8 425 22 414 79 c 2
 406 124 l 1
 375 41 327 -15 241 -15 c 0
 120 -15 43 78 43 260 c 0
 43 425 118 544 254 544 c 0xd0
268 448 m 0
 211 448 175 386 175 260 c 0
 175 133 209 81 264 81 c 0
 309 81 353 115 382 270 c 1
 357 408 324 448 268 448 c 0
EndSplineSet
EndChar
StartChar: uni03B2
Encoding: 946 946 552
Width: 603
Flags: W
HStem: -218 21G<75 75> -15 100<316 351.5 292.5 406> 353 90<255 290 245 291> 661 94<265 324>
VStem: 75 125<-201 33 -201 118 118 544> 390 123<522 594> 439 129<169.5 262>
LayerCount: 2
Fore
SplineSet
370 405 m 1xfa
 459 396 568 357 568 205 c 0xfa
 568 72 468 -15 344 -15 c 0
 288 -15 242 3 200 33 c 1
 200 -201 l 1
 75 -218 l 1
 75 544 l 2
 75 677 164 755 297 755 c 0
 426 755 513 680 513 568 c 0xfc
 513 476 456 421 370 405 c 1xfa
318 85 m 0
 385 85 439 126 439 213 c 0xfa
 439 311 384 353 290 353 c 2
 245 353 l 1
 255 443 l 1
 291 443 l 2
 348 443 390 479 390 559 c 0xfc
 390 629 352 661 296 661 c 0
 234 661 200 624 200 544 c 2
 200 118 l 1
 231 96 267 85 318 85 c 0
EndSplineSet
EndChar
StartChar: uni03B4
Encoding: 948 948 554
Width: 578
Flags: W
HStem: -15 97<250.5 324.5 250.5 365.5> 662 93<276 327.5> 677 20G<480 480>
VStem: 43 134<190.5 289 190.5 295> 98 126<585 620 585 645.5> 400 135<191 296.5>
LayerCount: 2
Fore
SplineSet
333 511 m 0xd4
 468 455 535 387 535 246 c 0
 535 97 442 -15 289 -15 c 0
 139 -15 43 81 43 241 c 0xd4
 43 349 102 421 195 466 c 1
 118 508 98 550 98 606 c 0
 98 685 161 755 295 755 c 0xcc
 376 755 434 731 480 697 c 1xb4
 419 625 l 1
 382 650 349 662 306 662 c 0
 246 662 224 636 224 604 c 0xcc
 224 566 241 549 333 511 c 0xd4
288 82 m 0
 361 82 400 136 400 246 c 0
 400 347 373 387 266 434 c 1
 205 389 177 334 177 244 c 0
 177 137 213 82 288 82 c 0
EndSplineSet
EndChar
StartChar: uni03BA
Encoding: 954 954 560
Width: 540
Flags: W
HStem: -15 21G<502 502> 0 21G<82 210 82 82> 522 20G<176 176> 523 20G<419 419>
VStem: 82 128<0 342 0 371 0 404>
LayerCount: 2
Fore
SplineSet
522 494 m 1x58
 353 285 l 1
 481 128 l 2
 502 102 519 90 545 81 c 1
 502 -15 l 1
 445 -9 411 13 370 71 c 2xa8
 214 282 l 1
 419 543 l 1
 522 494 l 1x58
176 542 m 1
 195 505 210 454 210 342 c 2
 210 0 l 1
 82 0 l 1x58
 82 371 l 2
 82 437 71 487 59 526 c 1
 176 542 l 1
EndSplineSet
EndChar
StartChar: uni03BD
Encoding: 957 957 563
Width: 496
Flags: W
HStem: 0 21G<167 318 167 167> 0 104<245 245 245 318 167 245> 523 20G<106 106 370 370>
VStem: -12 506<501 516>
LayerCount: 2
Fore
SplineSet
106 543 m 1xb0
 155 483 204 343 245 104 c 1x70
 370 543 l 1
 494 516 l 1
 318 0 l 1
 167 0 l 1
 108 256 59 426 -12 501 c 1
 106 543 l 1xb0
EndSplineSet
EndChar
StartChar: uni03C2
Encoding: 962 962 568
Width: 473
Flags: W
HStem: -219 21G<269 269> 443 101<262 318>
VStem: 43 135<227 332.5 227 356> 307 133<-71 -32.5>
LayerCount: 2
Fore
SplineSet
290 544 m 0
 359 544 412 525 462 482 c 1
 404 404 l 1
 370 431 338 443 298 443 c 0
 226 443 178 391 178 274 c 0
 178 180 206 151 305 109 c 0
 385 76 440 44 440 -37 c 0
 440 -117 385 -169 269 -219 c 1
 220 -140 l 1
 271 -114 307 -92 307 -50 c 0
 307 -15 288 -3 216 26 c 0
 111 69 43 125 43 274 c 0
 43 438 140 544 290 544 c 0
EndSplineSet
EndChar
StartChar: uni03C7
Encoding: 967 967 573
Width: 481
Flags: W
HStem: -216 21G<120 120 356 356> 521 20G<334 334> 522 20G<110 110>
VStem: -14 499
LayerCount: 2
Fore
SplineSet
307 186 m 1xb0
 485 -197 l 1
 356 -216 l 1
 239 81 l 1
 120 -216 l 1
 -9 -202 l 1
 174 185 l 1
 95 357 51 432 -14 501 c 1
 110 542 l 1xb0
 158 479 191 424 242 274 c 1
 334 541 l 1
 466 527 l 1xd0
 307 186 l 1xb0
EndSplineSet
EndChar
StartChar: uni03D6
Encoding: 982 982 580
Width: 742
Flags: W
HStem: -15 97<224.5 265 224.5 266.5 475.5 512> 434 95<97.5 720 224 224 224 518 625 720 625 625>
VStem: 50 126<178.5 264> 312 119<184 311 311 311> 567 126<172.5 264 142.5 267>
LayerCount: 2
Fore
SplineSet
720 434 m 1
 625 434 l 1
 663 376 693 307 693 221 c 0
 693 64 613 -15 511 -15 c 0
 439 -15 388 21 372 103 c 1
 352 20 305 -15 228 -15 c 0
 127 -15 50 61 50 221 c 0
 50 307 79 376 118 434 c 1
 77 434 63 431 34 423 c 1
 12 510 l 1
 48 525 87 529 178 529 c 2
 720 529 l 1
 720 434 l 1
567 229 m 0
 567 305 549 369 518 434 c 1
 224 434 l 1
 193 369 176 305 176 228 c 0
 176 129 201 82 248 82 c 0
 282 82 312 98 312 184 c 2
 312 311 l 1
 431 327 l 1
 431 184 l 2
 431 107 459 82 492 82 c 0
 532 82 567 116 567 229 c 0
EndSplineSet
EndChar
StartChar: uni03D7
Encoding: 983 983 581
Width: 584
Flags: W
HStem: -221 97<347 384 347 425.5> -10 21G<194 194> 519 20G<390 390> 524 20G<78 78>
VStem: 82 123<353.5 367 367 391.5> 379 122<136 162 162 175.5> 428 118<-80.5 -57>
LayerCount: 2
Fore
SplineSet
501 162 m 2xec
 501 110 512 89 546 74 c 1
 546 -46 l 2
 546 -162 479 -221 372 -221 c 0
 313 -221 269 -202 241 -180 c 1
 286 -103 l 1
 310 -116 330 -124 364 -124 c 0
 404 -124 428 -104 428 -57 c 2xda
 429 29 l 1
 395 52 379 88 379 144 c 0
 379 207 405 365 418 413 c 1
 194 -10 l 1
 82 25 l 1
 82 367 l 2
 82 416 72 434 38 450 c 1
 78 544 l 1xdc
 162 524 205 477 205 385 c 0
 205 322 178 164 165 116 c 1
 390 539 l 1
 501 504 l 1
 501 162 l 2xec
EndSplineSet
EndChar
StartChar: uni03F5
Encoding: 1013 1013 586
Width: 484
Flags: W
HStem: -15 97<263.5 317.5 263.5 327.5> 230 81<175 378 175 378 174 378> 448 96<263 317.5>
VStem: 43 131<230 230 230 346.5>
LayerCount: 2
Fore
SplineSet
299 82 m 0
 336 82 368 93 408 123 c 1
 465 46 l 1
 415 6 359 -15 296 -15 c 0
 138 -15 43 91 43 262 c 0
 43 431 140 544 291 544 c 0
 359 544 415 525 465 482 c 1
 408 409 l 1
 368 439 336 448 299 448 c 0
 227 448 180 404 175 311 c 1
 378 311 l 1
 378 230 l 1
 174 230 l 1
 179 125 228 82 299 82 c 0
EndSplineSet
EndChar
StartChar: uni2135
Encoding: 8501 8501 595
Width: 583
Flags: W
HStem: 0 21G<45 168 45 45 418 562 418 418> 546 20G<18 162 162 162 401 525 525 525>
VStem: 45 123<0 109 109 113 0 167.5> 401 124<457 461 461 566 403.5 566>
LayerCount: 2
Fore
SplineSet
562 0 m 1
 418 0 l 1
 201 308 l 1
 173 263 168 204 168 113 c 2
 168 0 l 1
 45 0 l 1
 45 109 l 2
 45 226 60 312 155 372 c 1
 18 566 l 1
 162 566 l 1
 375 264 l 1
 399 309 401 369 401 457 c 2
 401 566 l 1
 525 566 l 1
 525 461 l 2
 525 346 512 260 421 199 c 1
 562 0 l 1
EndSplineSet
EndChar
StartChar: uni2138
Encoding: 8504 8504 598
Width: 491
Flags: W
HStem: 0 21G<233 361 233 233> 458 108<10 290 10 464 367 449 367 367>
VStem: 233 128<0 270 270 296 0 317.5>
LayerCount: 2
Fore
SplineSet
464 566 m 1
 449 458 l 1
 367 458 l 1
 362 423 361 373 361 296 c 2
 361 0 l 1
 233 0 l 1
 233 270 l 2
 233 365 258 419 290 458 c 1
 10 458 l 1
 10 566 l 1
 464 566 l 1
EndSplineSet
EndChar
StartChar: uniFB02
Encoding: 64258 64258 940
Width: 618
Flags: W
HStem: -15 21G<474.5 530.5> -15 103<474.5 553> 0 21G<89 217 89 89> 437 92<6 89 6 89 217 316> 659 96<265 302.5 215.5 313> 729 20G<518 518>
VStem: 89 128<0 437 0 437 529 586> 390 128<120 129 129 645 645 645>
LayerCount: 2
Fore
SplineSet
578 93 m 1x57
 605 3 l 1
 579 -8 547 -15 514 -15 c 0x9b
 435 -15 390 32 390 120 c 2
 390 645 l 1
 357 655 331 659 295 659 c 0
 235 659 217 637 217 586 c 2
 217 529 l 1
 330 529 l 1
 316 437 l 1
 217 437 l 1
 217 0 l 1
 89 0 l 1
 89 437 l 1
 6 437 l 1
 6 529 l 1
 89 529 l 1
 89 587 l 2
 89 683 151 755 280 755 c 0x3b
 325 755 362 747 399 736 c 1
 518 749 l 1
 518 129 l 2
 518 100 527 88 548 88 c 0
 558 88 569 90 578 93 c 1x57
EndSplineSet
EndChar
StartChar: uniFB03
Encoding: 64259 64259 942
Width: 876
Flags: W
HStem: 0 21G<89 217 89 89 379 507 379 379 673 801 673 673> 437 92<6 89 6 89 217 379 507 673> 650 94<263.5 308 215.5 309> 657 98<559 614>
VStem: 89 128<0 437 0 437 529 577 577 581> 379 128<0 437 0 437 529 583> 673 128<0 437 437 437>
LayerCount: 2
Fore
SplineSet
507 529 m 1xee
 801 529 l 1
 801 0 l 1
 673 0 l 1
 673 437 l 1
 507 437 l 1
 507 0 l 1
 379 0 l 1
 379 437 l 1
 217 437 l 1
 217 0 l 1
 89 0 l 1
 89 437 l 1
 6 437 l 1
 6 529 l 1
 89 529 l 1
 89 577 l 2
 89 673 151 744 280 744 c 0xee
 336 744 380 732 431 711 c 1
 464 738 513 755 582 755 c 0
 649 755 701 738 744 717 c 1
 706 632 l 1
 673 647 635 657 593 657 c 0
 525 657 507 633 507 583 c 2xde
 507 529 l 1xee
379 529 m 1
 379 585 l 2
 379 602 381 619 385 634 c 1
 352 645 326 650 292 650 c 0
 235 650 217 629 217 581 c 2
 217 529 l 1
 379 529 l 1
EndSplineSet
EndChar
StartChar: uniFB04
Encoding: 64260 64260 943
Width: 908
Flags: W
HStem: -15 21G<765 820.5> -15 103<765 843> 0 21G<89 217 89 89 379 507 379 379> 437 92<6 89 6 89 217 379 507 606> 650 94<263.5 308 215.5 309> 659 96<555 592.5 539 603> 729 20G<808 808>
VStem: 89 128<0 437 0 437 529 577 577 581> 379 128<0 437 0 437 529 586> 680 128<120 129 129 645 645 645>
LayerCount: 2
Fore
SplineSet
868 93 m 1x53c0
 895 3 l 1
 869 -8 837 -15 804 -15 c 0
 726 -15 680 32 680 120 c 2
 680 645 l 1
 647 655 621 659 585 659 c 0
 525 659 507 637 507 586 c 2x95c0
 507 529 l 1
 620 529 l 1
 606 437 l 1
 507 437 l 1
 507 0 l 1
 379 0 l 1
 379 437 l 1
 217 437 l 1
 217 0 l 1
 89 0 l 1
 89 437 l 1
 6 437 l 1
 6 529 l 1
 89 529 l 1
 89 577 l 2
 89 673 151 744 280 744 c 0x39c0
 336 744 380 732 431 711 c 1
 462 739 508 755 570 755 c 0x35c0
 615 755 652 747 689 736 c 1
 808 749 l 1
 808 129 l 2
 808 100 817 88 838 88 c 0
 848 88 859 90 868 93 c 1x53c0
379 529 m 1
 379 587 l 2
 379 604 381 619 385 634 c 1
 352 645 326 650 292 650 c 0
 235 650 217 629 217 581 c 2x39c0
 217 529 l 1
 379 529 l 1
EndSplineSet
EndChar
StartChar: u1D400
Encoding: 119808 119808 600
Width: 601
Flags: W
HStem: 0 21G<-25 190 -25 -25 408 626 408 408> 135 144<245 352 245 381 216 352> 552 144<298 298> 676 20G<178 424 424 424>
VStem: -25 651<0 0>
LayerCount: 2
Fore
SplineSet
408 0 m 1xd8
 381 135 l 1
 216 135 l 1
 190 0 l 1
 -25 0 l 1
 178 696 l 1
 424 696 l 1
 626 0 l 1
 408 0 l 1xd8
245 279 m 1
 352 279 l 1
 298 552 l 1xe8
 245 279 l 1
EndSplineSet
EndChar
StartChar: u1D403
Encoding: 119811 119811 603
Width: 656
Flags: W
HStem: 0 145<249 278> 551 145<249 266 266 291 249 249>
VStem: 43 206<145 551 145 696 145 696> 424 212<272 430>
LayerCount: 2
Fore
SplineSet
266 696 m 2
 457 696 636 637 636 351 c 0
 636 73 472 0 278 0 c 2
 43 0 l 1
 43 696 l 1
 266 696 l 2
291 551 m 2
 249 551 l 1
 249 145 l 1
 290 145 l 2
 383 145 424 193 424 351 c 0
 424 509 379 551 291 551 c 2
EndSplineSet
EndChar
StartChar: u1D408
Encoding: 119816 119816 608
Width: 292
Flags: W
HStem: 0 21G<43 249 43 43> 676 20G<43 249 249 249>
VStem: 43 206<0 696 0 696>
LayerCount: 2
Fore
SplineSet
249 696 m 1
 249 0 l 1
 43 0 l 1
 43 696 l 1
 249 696 l 1
EndSplineSet
EndChar
StartChar: u1D409
Encoding: 119817 119817 609
Width: 325
Flags: W
HStem: 676 20G<78 284 284 284>
VStem: 78 206<118 696>
LayerCount: 2
Fore
SplineSet
284 696 m 1
 284 111 l 2
 284 -83 156 -149 35 -189 c 1
 -20 -44 l 1
 69 -10 78 41 78 118 c 2
 78 696 l 1
 284 696 l 1
EndSplineSet
EndChar
StartChar: u1D416
Encoding: 119830 119830 622
Width: 859
Flags: W
HStem: 0 149<250 250 250 359> 676 20G<0 206 206 206 324 539 539 539 661 859 859 859>
VStem: 0 859<696 696>
LayerCount: 2
Fore
SplineSet
859 696 m 1
 758 0 l 1
 490 0 l 1
 428 500 l 1
 359 0 l 1
 97 0 l 1
 0 696 l 1
 206 696 l 1
 250 149 l 1
 324 696 l 1
 539 696 l 1
 601 149 l 1
 661 696 l 1
 859 696 l 1
EndSplineSet
EndChar
StartChar: u1D41A
Encoding: 119834 119834 626
Width: 551
Flags: W
HStem: -20 21G<137.5 221.5> -20 139<137.5 264.5> -16 21G<496 496> 230 103<273 290 290 311> 414 140<233.5 263.5>
VStem: 15 193<154 190 154 209> 311 193<154 173 173 230 230 230 333 346 346 357 154 373>
LayerCount: 2
Fore
SplineSet
504 173 m 2x3e
 504 135 512 120 536 111 c 1
 496 -16 l 1x3e
 427 -11 382 7 352 58 c 1
 313 -1 252 -20 191 -20 c 0x9e
 84 -20 15 51 15 150 c 0
 15 268 105 333 273 333 c 2
 311 333 l 1
 311 346 l 2
 311 400 293 414 234 414 c 0
 203 414 149 404 96 386 c 1
 53 512 l 1
 120 539 203 554 264 554 c 0
 434 554 504 489 504 357 c 2
 504 173 l 2x3e
252 119 m 0x5e
 277 119 298 133 311 151 c 1
 311 230 l 1
 290 230 l 2
 234 230 208 211 208 169 c 0
 208 139 225 119 252 119 c 0x5e
EndSplineSet
EndChar
StartChar: u1D41B
Encoding: 119835 119835 627
Width: 594
Flags: W
HStem: -20 141<290 430.5> 0 121<42 324> 412 142<298 445.5> 534 20G<352 445.5> 724 20G<42 42> 744 20G
VStem: 42 198<160 362 487 744 744 744> 374 203<210 328.5>
LayerCount: 2
Fore
SplineSet
380 554 m 0x57
 511 554 577 445 577 266 c 0
 577 103 498 -20 363 -20 c 0
 304 -20 256 5 225 46 c 1x97
 218 0 l 1
 42 0 l 1
 42 744 l 1x5b
 240 764 l 1
 240 487 l 1
 269 527 324 554 380 554 c 0x57
303 121 m 0
 345 121 374 154 374 266 c 0
 374 391 346 412 310 412 c 0
 286 412 261 398 240 362 c 1x67
 240 160 l 1
 256 133 277 121 303 121 c 0
EndSplineSet
EndChar
StartChar: u1D41E
Encoding: 119838 119838 630
Width: 560
Flags: W
HStem: -20 140<295 343 295 351.5> 211 112<217 350 216 541 217 217> 429 125<266 312.5>
VStem: 17 199<323 323 323 344> 350 195<323 330 330 330>
LayerCount: 2
Fore
SplineSet
545 274 m 0
 545 257 543 230 541 211 c 1
 217 211 l 1
 228 134 266 120 324 120 c 0
 362 120 399 135 445 167 c 1
 525 59 l 1
 472 16 398 -20 305 -20 c 0
 109 -20 17 101 17 266 c 0
 17 422 106 554 283 554 c 0
 441 554 545 453 545 274 c 0
350 323 m 1
 350 330 l 2
 349 384 338 429 287 429 c 0
 245 429 223 405 216 323 c 1
 350 323 l 1
EndSplineSet
EndChar
StartChar: u1D423
Encoding: 119843 119843 635
Width: 282
Flags: W
HStem: -227 21G<-2 -2> 514 20G<42 240 240 240> 617 212<108.5 173.5>
VStem: 30 222<693 753> 42 198<65 77 77 534>
LayerCount: 2
Fore
SplineSet
141 829 m 0xf0
 206 829 252 783 252 723 c 0
 252 663 206 617 141 617 c 0
 76 617 30 663 30 723 c 0
 30 783 76 829 141 829 c 0xf0
240 534 m 1xe8
 240 77 l 2
 240 -111 130 -184 -2 -227 c 1
 -70 -83 l 1
 -3 -52 42 -22 42 65 c 2
 42 534 l 1
 240 534 l 1xe8
EndSplineSet
EndChar
StartChar: u1D425
Encoding: 119845 119845 637
Width: 303
Flags: W
HStem: -20 21G<149 225.5> -2 21G<313 313> 724 20G<35 35> 744 20G
VStem: 35 198<154 162 162 744 744 744>
LayerCount: 2
Fore
SplineSet
203 -20 m 0x98
 95 -20 35 43 35 154 c 2
 35 744 l 1x68
 233 764 l 1
 233 162 l 2
 233 144 241 135 257 135 c 0
 266 135 273 137 278 139 c 1
 313 -2 l 1
 287 -12 248 -20 203 -20 c 0x98
EndSplineSet
EndChar
StartChar: u1D426
Encoding: 119846 119846 638
Width: 835
Flags: W
HStem: 0 21G<42 240 42 42 322 520 322 322 602 800 602 602> 410 124<42 302.5> 514 20G<42 215 215 215> 534 20G
VStem: 42 198<0 357 0 534 0 534> 322 198<0 357 0 358 0 379> 602 198<0 358 358 379>
LayerCount: 2
Fore
SplineSet
664 554 m 0x9e
 744 554 800 496 800 394 c 2
 800 0 l 1
 602 0 l 1
 602 358 l 2
 602 400 590 410 575 410 c 0
 556 410 536 393 520 357 c 1
 520 0 l 1
 322 0 l 1
 322 358 l 2
 322 400 310 410 295 410 c 0
 276 410 256 393 240 357 c 1xce
 240 0 l 1
 42 0 l 1
 42 534 l 1
 215 534 l 1xae
 229 480 l 1
 272 532 320 554 384 554 c 0
 439 554 483 527 504 477 c 1
 549 531 598 554 664 554 c 0x9e
EndSplineSet
EndChar
StartChar: u1D42C
Encoding: 119852 119852 644
Width: 488
Flags: W
HStem: -20 136<200.5 242.5 200.5 304> 417 137<247.5 285.5>
VStem: -5 488<65 212.5> 23 196<384 400 384 429> 281 202<138 162>
LayerCount: 2
Fore
SplineSet
256 554 m 0xe0
 335 554 412 527 461 485 c 1
 391 378 l 1
 353 402 307 417 264 417 c 0
 231 417 219 407 219 393 c 0
 219 375 225 367 326 336 c 0
 427 305 483 261 483 164 c 0
 483 54 378 -20 230 -20 c 0
 136 -20 50 13 -5 65 c 1
 89 169 l 1
 127 139 176 116 225 116 c 0
 260 116 281 127 281 149 c 0
 281 175 270 180 178 208 c 0
 78 238 23 295 23 381 c 0xd8
 23 477 106 554 256 554 c 0xe0
EndSplineSet
EndChar
StartChar: u1D42F
Encoding: 119855 119855 647
Width: 526
Flags: W
HStem: 0 21G<148 382 148 148> 0 143<267 267 267 382 148 267> 514 20G<-15 200 200 200 341 541 541 541>
VStem: -15 556<534 534>
LayerCount: 2
Fore
SplineSet
541 534 m 1xb0
 382 0 l 1
 148 0 l 1
 -15 534 l 1
 200 534 l 1
 267 143 l 1x70
 341 534 l 1
 541 534 l 1xb0
EndSplineSet
EndChar
StartChar: u1D430
Encoding: 119856 119856 648
Width: 768
Flags: W
HStem: 0 21G<102 328 102 102 441 668 441 441> 0 151<227 227 227 328 102 227> 358 176<383 383> 514 20G<-5 195 195 195 297 482 482 482 583 773 773 773>
VStem: -5 778<534 534>
LayerCount: 2
Fore
SplineSet
773 534 m 1x98
 668 0 l 1
 441 0 l 1
 383 358 l 1xa8
 328 0 l 1
 102 0 l 1
 -5 534 l 1
 195 534 l 1
 227 151 l 1
 297 534 l 1
 482 534 l 1
 538 151 l 1x58
 583 534 l 1
 773 534 l 1x98
EndSplineSet
EndChar
StartChar: u1D431
Encoding: 119857 119857 649
Width: 528
Flags: W
HStem: 0 21G<-20 193 -20 -20 327 548 327 327> 514 20G<-6 213 213 213 312 519 519 519>
VStem: -20 568<0 0>
LayerCount: 2
Fore
SplineSet
383 286 m 1
 548 0 l 1
 327 0 l 1
 257 184 l 1
 193 0 l 1
 -20 0 l 1
 143 280 l 1
 -6 534 l 1
 213 534 l 1
 265 377 l 1
 312 534 l 1
 519 534 l 1
 383 286 l 1
EndSplineSet
EndChar
StartChar: u1D433
Encoding: 119859 119859 651
Width: 467
Flags: W
HStem: 0 146<236 445> 390 144<25 227 25 455>
VStem: 5 457<0 146 138 146>
LayerCount: 2
Fore
SplineSet
455 534 m 1
 455 397 l 1
 236 146 l 1
 462 146 l 1
 445 0 l 1
 5 0 l 1
 5 138 l 1
 227 390 l 1
 25 390 l 1
 25 534 l 1
 455 534 l 1
EndSplineSet
EndChar
StartChar: u1D440
Encoding: 119872 119872 664
Width: 774
Flags: W
HStem: 0 21G<9 136 9 9 563 690 563 563> 578 113<616 616> 671 20G<160 321 321 321 558 733 733 733>
VStem: 9 724<0 691>
LayerCount: 2
Fore
SplineSet
733 691 m 1xb0
 690 0 l 1
 563 0 l 1
 586 292 l 2
 593 393 603 494 616 578 c 1
 422 75 l 1
 297 75 l 1
 234 576 l 1xd0
 228 480 211 381 191 283 c 2
 136 0 l 1
 9 0 l 1
 160 691 l 1
 321 691 l 1
 377 202 l 1
 558 691 l 1
 733 691 l 1xb0
EndSplineSet
EndChar
StartChar: u1D444
Encoding: 119876 119876 668
Width: 681
Flags: W
HStem: -15 55 -15 101<273 368.5> 605 101<309.5 434.5>
VStem: 49 135<193 318 193 356.5> 522 136<375.5 499.5>
LayerCount: 2
Fore
SplineSet
658 424 m 0x78
 658 284 608 108 461 40 c 1
 545 37 598 11 642 -24 c 1xb8
 549 -128 l 1
 489 -57 431 -15 306 -15 c 0
 145 -15 49 86 49 266 c 0
 49 447 135 706 401 706 c 0
 562 706 658 605 658 424 c 0x78
184 252 m 0
 184 134 233 86 313 86 c 0
 482 86 522 308 522 443 c 0
 522 556 476 605 393 605 c 0
 226 605 184 384 184 252 c 0
EndSplineSet
EndChar
StartChar: u1D447
Encoding: 119879 119879 671
Width: 522
Flags: W
HStem: 0 21G<158 289 158 158> 586 105<71 240 56 578 371 549 371 371>
VStem: 56 522<586 691>
LayerCount: 2
Fore
SplineSet
578 691 m 1
 549 586 l 1
 371 586 l 1
 289 0 l 1
 158 0 l 1
 240 586 l 1
 56 586 l 1
 71 691 l 1
 578 691 l 1
EndSplineSet
EndChar
StartChar: u1D44E
Encoding: 119886 119886 678
Width: 571
Flags: W
HStem: -15 97<220 240.5> 450 94<270.5 343.5>
VStem: 37 132<152 247 152 266.5>
LayerCount: 2
Fore
SplineSet
331 544 m 0
 401 544 468 527 533 493 c 1
 482 138 l 2
 477 102 480 83 510 71 c 1
 474 -13 l 1
 418 -7 377 18 365 75 c 1
 326 22 274 -15 207 -15 c 0
 97 -15 37 67 37 192 c 0
 37 341 115 544 331 544 c 0
329 450 m 0
 212 450 169 302 169 192 c 0
 169 112 198 82 242 82 c 0
 290 82 326 116 362 166 c 1
 400 436 l 1
 377 446 358 450 329 450 c 0
EndSplineSet
EndChar
StartChar: u1D44F
Encoding: 119887 119887 679
Width: 578
Flags: W
HStem: -15 96<239.5 312 239.5 357.5> 448 96<351.5 355.5> 735 20G<268 268>
VStem: 410 131<285 380.5>
LayerCount: 2
Fore
SplineSet
379 544 m 0
 481 544 541 469 541 337 c 0
 541 186 472 -15 243 -15 c 0
 174 -15 114 -2 40 25 c 1
 141 741 l 1
 268 755 l 1
 230 481 l 1
 273 521 324 544 379 544 c 0
334 448 m 0
 287 448 250 418 216 379 c 1
 177 95 l 1
 203 86 224 81 255 81 c 0
 369 81 410 231 410 339 c 0
 410 422 377 448 334 448 c 0
EndSplineSet
EndChar
StartChar: u1D452
Encoding: 119890 119890 682
Width: 525
Flags: W
HStem: -15 99<241 294 241 294.5> 453 91<273.5 342.5>
VStem: 38 129 379 130<365 410.5>
LayerCount: 2
Fore
SplineSet
509 404 m 0
 509 255 341 212 167 194 c 1
 170 112 212 84 270 84 c 0
 318 84 360 99 408 133 c 1
 457 53 l 1
 399 12 333 -15 256 -15 c 0
 112 -15 38 71 38 205 c 0
 38 349 113 544 326 544 c 0
 447 544 509 479 509 404 c 0
173 279 m 1
 315 292 379 331 379 399 c 0
 379 422 366 453 319 453 c 0
 228 453 187 364 173 279 c 1
EndSplineSet
EndChar
StartChar: u1D453
Encoding: 119891 119891 683
Width: 339
Flags: W
HStem: -218 21G<-39 -39> 437 92<42 114 29 127 253 352> 658 97<319 356.5>
VStem: -73 546 131 126
LayerCount: 2
Fore
SplineSet
345 658 m 0xf0
 293 658 268 633 261 582 c 2
 253 529 l 1
 378 529 l 1
 352 437 l 1
 240 437 l 1
 185 45 l 2
 162 -117 84 -170 -39 -218 c 1
 -73 -124 l 1
 2 -94 44 -63 59 42 c 2
 114 437 l 1
 29 437 l 1
 42 529 l 1
 127 529 l 1
 135 590 l 2xe8
 148 686 218 755 336 755 c 0
 394 755 436 738 473 714 c 1
 428 634 l 1
 398 653 368 658 345 658 c 0xf0
EndSplineSet
EndChar
StartChar: u1D457
Encoding: 119895 119895 686
Width: 275
Flags: W
HStem: -218 21G<-54 -54> 509 20G<113 239 239 239> 642 155<186.5 220.5>
VStem: 124 159<703 735.5>
LayerCount: 2
Fore
SplineSet
196 642 m 0
 152 642 124 672 124 711 c 0
 124 760 162 797 211 797 c 0
 255 797 283 767 283 727 c 0
 283 679 245 642 196 642 c 0
-54 -218 m 1
 -87 -126 l 1
 -13 -94 30 -63 44 42 c 2
 113 529 l 1
 239 529 l 1
 171 45 l 2
 148 -117 69 -170 -54 -218 c 1
EndSplineSet
EndChar
StartChar: u1D459
Encoding: 119897 119897 688
Width: 284
Flags: W
HStem: -15 21G<117 171.5> -15 103<117 201> 735 20G<262 262>
VStem: 45.66 127.34
LayerCount: 2
Fore
SplineSet
262 755 m 1xb0
 173 125 l 2
 170 98 177 88 196 88 c 0
 206 88 216 91 226 94 c 1x70
 245 4 l 1
 217 -9 186 -15 157 -15 c 0
 77 -15 35 34 48 130 c 2
 134 741 l 1
 262 755 l 1xb0
EndSplineSet
EndChar
StartChar: u1D461
Encoding: 119905 119905 696
Width: 367
Flags: W
HStem: -15 104<220 229.5> 437 92<41 110 28 128 249 344>
VStem: 68.1 128.9
LayerCount: 2
Fore
SplineSet
236 437 m 1
 197 159 l 2
 189 107 203 89 237 89 c 0
 260 89 280 96 305 108 c 1
 341 23 l 1
 299 -3 251 -15 208 -15 c 0
 106 -15 55 48 71 160 c 2
 110 437 l 1
 28 437 l 1
 41 529 l 1
 128 529 l 1
 161 649 l 1
 267 661 l 1
 249 529 l 1
 371 529 l 1
 344 437 l 1
 236 437 l 1
EndSplineSet
EndChar
StartChar: u1D465
Encoding: 119909 119909 700
Width: 493
Flags: W
HStem: 0 21G<-40 102 -40 -40 320 459 320 320> 509 20G<52 191 191 191 370 511 511 511>
VStem: -40 551<0 529>
LayerCount: 2
Fore
SplineSet
511 529 m 1
 325 277 l 1
 459 0 l 1
 320 0 l 1
 239 207 l 1
 102 0 l 1
 -40 0 l 1
 173 283 l 1
 52 529 l 1
 191 529 l 1
 256 347 l 1
 370 529 l 1
 511 529 l 1
EndSplineSet
EndChar
StartChar: u1D466
Encoding: 119910 119910 701
Width: 498
Flags: W
HStem: -218 21G<-9 -9> 0 21G<131 176 131 131> 509 20G<39 171 171 171 403 534 534 534>
VStem: -13 547
LayerCount: 2
Fore
SplineSet
534 529 m 1
 295 -3 l 2
 240 -128 147 -206 -9 -218 c 1
 -13 -125 l 1
 94 -109 134 -75 176 0 c 1
 131 0 l 1
 39 529 l 1
 171 529 l 1
 223 88 l 1
 403 529 l 1
 534 529 l 1
EndSplineSet
EndChar
StartChar: u1D467
Encoding: 119911 119911 702
Width: 432
Flags: W
HStem: 0 100<146 366> 429 100<73 279 58 448>
VStem: -23 471
LayerCount: 2
Fore
SplineSet
448 529 m 1
 436 437 l 1
 146 100 l 1
 393 100 l 1
 366 0 l 1
 -23 0 l 1
 -11 92 l 1
 279 429 l 1
 58 429 l 1
 73 529 l 1
 448 529 l 1
EndSplineSet
EndChar
StartChar: u1D481
Encoding: 119937 119937 728
Width: 545
Flags: W
HStem: 0 161<232 474> 540 156<97 326 76 582>
VStem: -28 610
LayerCount: 2
Fore
SplineSet
-28 0 m 1
 -8 151 l 1
 326 540 l 1
 76 540 l 1
 97 696 l 1
 582 696 l 1
 561 543 l 1
 232 161 l 1
 516 161 l 1
 474 0 l 1
 -28 0 l 1
EndSplineSet
EndChar
StartChar: u1D482
Encoding: 119938 119938 729
Width: 574
Flags: W
HStem: -20 21G<129 224> -20 142<129 266> -16 21G<486 486> 418 136<279.5 330>
VStem: 11 199<165 245 165 275.5>
LayerCount: 2
Fore
SplineSet
330 554 m 0x38
 405 554 492 535 566 491 c 1
 520 172 l 2
 516 138 516 121 542 110 c 1
 486 -16 l 1x38
 424 -12 366 15 345 72 c 1
 310 19 262 -20 186 -20 c 0x98
 72 -20 11 64 11 197 c 0
 11 354 94 554 330 554 c 0x38
322 418 m 0
 237 418 210 292 210 198 c 0
 210 132 231 122 253 122 c 0
 279 122 306 141 330 182 c 1x58
 364 412 l 1
 349 416 338 418 322 418 c 0
EndSplineSet
EndChar
StartChar: u1D483
Encoding: 119939 119939 730
Width: 583
Flags: W
HStem: -20 141<255.5 305.5 255.5 379> 412 142<312.5 462.5> 534 20G<382 462.5> 744 20G
VStem: 372 199<293.5 369>
LayerCount: 2
Fore
SplineSet
407 554 m 0xb8
 518 554 571 478 571 347 c 0
 571 191 514 -20 244 -20 c 0
 156 -20 77 -1 7 30 c 1
 107 744 l 1
 303 764 l 1
 265 493 l 1
 300 530 357 554 407 554 c 0xb8
326 412 m 0xd8
 299 412 272 396 247 359 c 1
 215 131 l 1
 228 126 245 121 266 121 c 0
 345 121 372 249 372 338 c 0
 372 400 351 412 326 412 c 0xd8
EndSplineSet
EndChar
StartChar: u1D484
Encoding: 119940 119940 731
Width: 469
Flags: W
HStem: -20 153<264 295> 405 149<281.5 343>
VStem: 12 203<180 251.5 180 286>
LayerCount: 2
Fore
SplineSet
327 554 m 0
 400 554 462 527 507 480 c 1
 414 369 l 1
 386 395 358 405 328 405 c 0
 235 405 215 291 215 212 c 0
 215 148 244 133 284 133 c 0
 317 133 342 145 379 168 c 1
 449 44 l 1
 395 5 334 -20 256 -20 c 0
 101 -20 12 74 12 217 c 0
 12 355 99 554 327 554 c 0
EndSplineSet
EndChar
StartChar: u1D486
Encoding: 119942 119942 733
Width: 542
Flags: W
HStem: -20 140<265.5 306> 429 125<283.5 326.5>
VStem: 12 194 351 194<380 402.5>
LayerCount: 2
Fore
SplineSet
545 401 m 0
 545 252 362 205 206 191 c 1
 211 137 244 120 287 120 c 0
 331 120 369 137 419 169 c 1
 486 56 l 1
 427 13 351 -20 261 -20 c 0
 90 -20 12 75 12 211 c 0
 12 356 94 554 331 554 c 0
 470 554 545 488 545 401 c 0
214 302 m 1
 335 309 351 368 351 392 c 0
 351 413 341 429 312 429 c 0
 255 429 227 367 214 302 c 1
EndSplineSet
EndChar
StartChar: u1D489
Encoding: 119945 119945 736
Width: 557
Flags: W
HStem: 0 21G<3 197 3 3 292 486 292 292> 534 20G<393 467.5> 744 20G
VStem: 340 203.47
LayerCount: 2
Fore
SplineSet
426 554 m 0
 509 554 555 495 541 393 c 2
 486 0 l 1
 292 0 l 1
 340 341 l 2
 346 383 337 393 324 393 c 0
 300 393 271 353 236 278 c 1
 197 0 l 1
 3 0 l 1
 107 744 l 1
 303 764 l 1
 260 451 l 1
 294 512 360 554 426 554 c 0
EndSplineSet
EndChar
StartChar: u1D48A
Encoding: 119946 119946 737
Width: 276
Flags: W
HStem: 0 21G<4 198 4 4> 514 20G<78 272 272 272> 617 212<180.5 223.5>
VStem: 92 220<702 744>
LayerCount: 2
Fore
SplineSet
189 617 m 0
 130 617 92 656 92 710 c 0
 92 778 146 829 215 829 c 0
 274 829 312 790 312 736 c 0
 312 668 258 617 189 617 c 0
272 534 m 1
 198 0 l 1
 4 0 l 1
 78 534 l 1
 272 534 l 1
EndSplineSet
EndChar
StartChar: u1D492
Encoding: 119954 119954 745
Width: 572
Flags: W
HStem: -227 21G<277 277> -20 21G<128 217.5> -20 142<128 269.5> 418 136<282.5 333>
VStem: 11 199<165 245 165 280>
LayerCount: 2
Fore
SplineSet
277 -227 m 1xd8
 314 36 l 1
 301 16 250 -20 185 -20 c 0
 71 -20 11 64 11 197 c 0
 11 363 97 554 333 554 c 0
 408 554 495 535 569 491 c 1
 472 -207 l 1
 277 -227 l 1xd8
256 122 m 0xb8
 283 122 309 141 333 182 c 1
 367 412 l 1
 352 416 341 418 325 418 c 0
 240 418 210 292 210 198 c 0
 210 132 233 122 256 122 c 0xb8
EndSplineSet
EndChar
StartChar: u1D495
Encoding: 119957 119957 748
Width: 389
Flags: W
HStem: -20 155<149.5 283> 400 134<33 78 15 105 290 370>
VStem: 45.45 198.55
LayerCount: 2
Fore
SplineSet
274 135 m 0
 292 135 307 140 325 148 c 1
 373 22 l 1
 325 -6 259 -20 211 -20 c 0
 88 -20 30 57 49 198 c 2
 78 400 l 1
 15 400 l 1
 33 534 l 1
 105 534 l 1
 137 649 l 1
 309 669 l 1
 290 534 l 1
 410 534 l 1
 370 400 l 1
 272 400 l 1
 244 198 l 2
 237 148 250 135 274 135 c 0
EndSplineSet
EndChar
StartChar: u1D497
Encoding: 119959 119959 750
Width: 514
Flags: W
HStem: 0 21G<108 341 108 108> 0 143<245 245 245 341 108 245> 514 20G<22 230 230 230 366 568 568 568>
VStem: 22 546<534 534>
LayerCount: 2
Fore
SplineSet
568 534 m 1xb0
 341 0 l 1
 108 0 l 1
 22 534 l 1
 230 534 l 1
 245 143 l 1x70
 366 534 l 1
 568 534 l 1xb0
EndSplineSet
EndChar
StartChar: u1D498
Encoding: 119960 119960 751
Width: 756
Flags: W
HStem: 0 21G<66 289 66 66 400 620 400 400> 0 151<209 209 209 289 66 209> 358 176<393 393> 514 20G<35 231 231 231 331 512 512 512 611 797 797 797>
VStem: 396.5 116.5
LayerCount: 2
Fore
SplineSet
797 534 m 1x98
 620 0 l 1
 400 0 l 1
 393 358 l 1xa8
 289 0 l 1
 66 0 l 1
 35 534 l 1
 231 534 l 1
 209 151 l 1
 331 534 l 1
 512 534 l 1
 514 151 l 1x58
 611 534 l 1
 797 534 l 1x98
EndSplineSet
EndChar
StartChar: u1D6A5
Encoding: 120485 120485 756
Width: 275
Flags: W
HStem: -218 21G<-54 -54> 509 20G<113 239 239 239>
VStem: -87 326
LayerCount: 2
Fore
SplineSet
-54 -218 m 1
 -87 -126 l 1
 -13 -94 30 -63 44 42 c 2
 113 529 l 1
 239 529 l 1
 171 45 l 2
 148 -117 69 -170 -54 -218 c 1
EndSplineSet
EndChar
StartChar: u1D6B0
Encoding: 120496 120496 765
Width: 292
Flags: W
HStem: 0 21G<43 249 43 43> 676 20G<43 249 249 249>
VStem: 43 206<0 696 0 696>
LayerCount: 2
Fore
SplineSet
249 696 m 1
 249 0 l 1
 43 0 l 1
 43 696 l 1
 249 696 l 1
EndSplineSet
EndChar
StartChar: u1D6B4
Encoding: 120500 120500 769
Width: 651
Flags: W
HStem: 0 21G<43 225 43 43 350 608 350 350> 676 20G<43 296 296 296 426 608 608 608>
VStem: 43 182<0 216 0 696> 426 182<473 696 0 696>
LayerCount: 2
Fore
SplineSet
608 696 m 1
 608 0 l 1
 350 0 l 1
 198 508 l 1
 208 441 225 345 225 216 c 2
 225 0 l 1
 43 0 l 1
 43 696 l 1
 296 696 l 1
 454 186 l 1
 441 267 426 347 426 473 c 2
 426 696 l 1
 608 696 l 1
EndSplineSet
EndChar
StartChar: u1D6B8
Encoding: 120504 120504 773
Width: 611
Flags: W
HStem: 0 21G<43 249 43 43> 217 145<249 297 297 317 249 297> 553 143<249 291 249 249>
VStem: 43 206<0 217 0 362 362 553> 386 210<428 490.5>
LayerCount: 2
Fore
SplineSet
294 696 m 2
 481 696 596 618 596 462 c 0
 596 299 482 217 317 217 c 2
 249 217 l 1
 249 0 l 1
 43 0 l 1
 43 696 l 1
 294 696 l 2
297 362 m 2
 355 362 386 394 386 462 c 0
 386 519 359 553 291 553 c 2
 249 553 l 1
 249 362 l 1
 297 362 l 2
EndSplineSet
EndChar
StartChar: u1D6BC
Encoding: 120508 120508 777
Width: 620
Flags: W
HStem: 0 21G<207 413 207 207> 676 20G<-15 210 210 210 417 635 635 635>
VStem: 207 206<0 256 256 256>
LayerCount: 2
Fore
SplineSet
635 696 m 1
 413 257 l 1
 413 0 l 1
 207 0 l 1
 207 256 l 1
 -15 696 l 1
 210 696 l 1
 313 412 l 1
 417 696 l 1
 635 696 l 1
EndSplineSet
EndChar
StartChar: u1D6C6
Encoding: 120518 120518 786
Width: 486
Flags: W
HStem: -20 136<265 307> 212 120<259.5 361 291 343> 422 132<274 302.5 195 310>
VStem: 15 203<149.5 178.5 149.5 186> 15 476<45 186> 35 199<376 393.5 366 452>
LayerCount: 2
Fore
SplineSet
262 554 m 0xe8
 343 554 415 534 477 487 c 1
 400 389 l 1
 362 410 330 422 290 422 c 0
 258 422 234 407 234 380 c 0
 234 352 251 332 291 332 c 2xe4
 361 332 l 1
 343 212 l 1
 283 212 l 2
 236 212 218 192 218 165 c 0
 218 134 239 116 291 116 c 0
 327 116 361 126 411 153 c 1
 491 45 l 1
 435 4 356 -20 258 -20 c 0
 120 -20 15 36 15 147 c 0xf0
 15 225 63 272 163 284 c 1
 74 302 35 346 35 406 c 0xe4
 35 498 128 554 262 554 c 0xe8
EndSplineSet
EndChar
StartChar: u1D6CB
Encoding: 120523 120523 791
Width: 568
Flags: W
HStem: -20 21G<515 515> 0 21G<46 244 46 46> 528 20G<210 210> 532 20G<401 401>
VStem: 46 198<0 349 0 397 0 419.5>
LayerCount: 2
Fore
SplineSet
573 483 m 1x58
 453 286 l 1
 544 158 l 2
 555 142 565 134 583 129 c 1
 515 -20 l 1xa8
 446 -14 393 8 353 84 c 2
 248 281 l 1
 401 552 l 1
 573 483 l 1x58
210 548 m 1
 231 509 244 459 244 349 c 2
 244 0 l 1
 46 0 l 1x58
 46 397 l 2
 46 442 36 495 27 524 c 1
 210 548 l 1
EndSplineSet
EndChar
StartChar: u1D6CE
Encoding: 120526 120526 794
Width: 523
Flags: W
HStem: 0 21G<142 371 142 142> 0 156<260 260 260 371 142 260> 533 20G<347 347> 534 20G<152 152>
VStem: -25 563<494 510>
LayerCount: 2
Fore
SplineSet
152 554 m 1x98
 199 501 242 365 260 156 c 1
 347 553 l 1
 538 510 l 1x68
 371 0 l 1
 142 0 l 1
 101 226 48 421 -25 494 c 1
 152 554 l 1x98
EndSplineSet
EndChar
StartChar: u1D6D9
Encoding: 120537 120537 805
Width: 795
Flags: W
HStem: -227 21G<306 306> -207 21G<494 494> -18 21G<306 306> -17 21G<494 494> 514 20G<35 228 228 228 306 494 494 494 550 739 739 739>
VStem: 35 193<205 215 215 534> 306 188<-207 -18 -18 -18 -207 119 119 534> 577 193<210.5 291.5>
LayerCount: 2
Fore
SplineSet
770 242 m 0x5f
 770 86 660 -1 494 -17 c 1
 494 -207 l 1x5f
 306 -227 l 1
 306 -18 l 1xaf
 124 -1 35 88 35 205 c 2
 35 534 l 1
 228 534 l 1
 228 215 l 2
 228 163 247 129 306 117 c 1
 306 534 l 1
 494 534 l 1
 494 119 l 1
 551 133 577 174 577 247 c 0
 577 336 565 444 550 534 c 1
 739 534 l 1
 756 456 770 359 770 242 c 0x5f
EndSplineSet
EndChar
StartChar: u1D6E2
Encoding: 120546 120546 814
Width: 574
Flags: W
HStem: 0 21G<-43 93 -43 -43 405 542 405 405> 160 100<197 373 197 385 157 373> 595 96<332 332> 671 20G<267 427 427 427>
VStem: -43 585<0 0>
LayerCount: 2
Fore
SplineSet
405 0 m 1xd8
 385 160 l 1
 157 160 l 1
 93 0 l 1
 -43 0 l 1
 267 691 l 1
 427 691 l 1
 542 0 l 1
 405 0 l 1xd8
197 260 m 1
 373 260 l 1
 332 595 l 1xe8
 197 260 l 1
EndSplineSet
EndChar
StartChar: u1D6E4
Encoding: 120548 120548 816
Width: 502
Flags: W
HStem: 0 21G<43 174 43 43> 584 107<255 527 255 255>
VStem: 43 515
LayerCount: 2
Fore
SplineSet
558 691 m 1
 527 584 l 1
 255 584 l 1
 174 0 l 1
 43 0 l 1
 140 691 l 1
 558 691 l 1
EndSplineSet
EndChar
StartChar: u1D6EF
Encoding: 120559 120559 827
Width: 509
Flags: W
HStem: 0 117<13 436 -3 452> 296 109<116 411 100 426> 578 113<94 498 78 530>
VStem: -3 533
LayerCount: 2
Fore
SplineSet
530 691 m 1
 498 578 l 1
 78 578 l 1
 94 691 l 1
 530 691 l 1
426 405 m 1
 411 296 l 1
 100 296 l 1
 116 405 l 1
 426 405 l 1
452 117 m 1
 436 0 l 1
 -3 0 l 1
 13 117 l 1
 452 117 l 1
EndSplineSet
EndChar
StartChar: u1D6F9
Encoding: 120569 120569 837
Width: 704
Flags: W
HStem: 0 21G<249 381 249 249> 671 20G<87 213 213 213 351 473 473 473 611 737 737 737>
VStem: 47.19 126.41
LayerCount: 2
Fore
SplineSet
611 691 m 1
 737 691 l 1
 700 427 l 2
 680 284 577 204 406 187 c 1
 381 0 l 1
 249 0 l 1
 275 187 l 1
 104 206 31 291 50 430 c 2
 87 691 l 1
 213 691 l 1
 176 427 l 2
 164 337 196 293 294 283 c 1
 351 691 l 1
 473 691 l 1
 415 284 l 1
 511 296 562 344 574 432 c 2
 611 691 l 1
EndSplineSet
EndChar
StartChar: u1D6FA
Encoding: 120570 120570 838
Width: 683
Flags: W
HStem: 0 101<41 147 41 260 27 147 490 582> 605 101<309.5 435>
VStem: 51 134<249.5 323 210 376.5> 523 136<392 501>
LayerCount: 2
Fore
SplineSet
401 706 m 0
 565 706 659 599 659 433 c 0
 659 317 627 170 490 101 c 1
 596 101 l 1
 582 0 l 1
 349 0 l 1
 361 99 l 1
 498 148 523 337 523 447 c 0
 523 555 477 605 393 605 c 0
 226 605 185 392 185 254 c 0
 185 166 213 122 272 97 c 1
 260 0 l 1
 27 0 l 1
 41 101 l 1
 147 101 l 1
 82 141 51 202 51 297 c 0
 51 456 142 706 401 706 c 0
EndSplineSet
EndChar
StartChar: u1D700
Encoding: 120576 120576 843
Width: 481
Flags: W
HStem: -15 95<214.5 265> 230 88<222.5 347 282 321> 452 92<266.5 321>
VStem: 22 131<125.5 168 125.5 175> 79 125<361.5 401 361 431>
LayerCount: 2
Fore
SplineSet
226 -15 m 0xf0
 104 -15 22 44 22 139 c 0xf0
 22 211 69 271 179 283 c 1
 117 299 79 333 79 390 c 0
 79 472 148 544 289 544 c 0
 363 544 424 522 469 482 c 1
 408 417 l 1
 376 439 345 452 297 452 c 0
 236 452 204 421 204 381 c 0
 204 341 232 318 282 318 c 2xe8
 347 318 l 1
 321 230 l 1
 266 230 l 2
 179 230 153 191 153 145 c 0
 153 106 183 80 246 80 c 0
 293 80 332 96 385 127 c 1
 432 50 l 1
 377 10 304 -15 226 -15 c 0xf0
EndSplineSet
EndChar
StartChar: u1D701
Encoding: 120577 120577 844
Width: 397
Flags: W
HStem: -220 21G<181 181> 645 96<114 228 87 478> 660 81
VStem: 24 132<198 279 198 286> 241 133<-63 -26.5>
LayerCount: 2
Fore
SplineSet
181 -220 m 1xd8
 142 -141 l 1
 198 -111 241 -86 241 -42 c 0
 241 -11 221 1 162 29 c 0
 71 69 24 114 24 219 c 0
 24 353 127 514 369 660 c 1
 340 651 299 645 228 645 c 2
 87 645 l 1
 114 741 l 1
 478 741 l 1xd8
 485 665 l 1xb8
 210 457 156 327 156 231 c 0
 156 165 188 140 256 110 c 0
 325 79 374 48 374 -25 c 0
 374 -101 328 -160 181 -220 c 1xd8
EndSplineSet
EndChar
StartChar: u1D708
Encoding: 120584 120584 851
Width: 488
Flags: W
HStem: 0 21G<124 279 124 124> 0 110<220 220 220 279 124 220> 522 20G<141 141> 523 20G<402 402>
VStem: 22 500<503 516>
LayerCount: 2
Fore
SplineSet
141 542 m 1xa8
 182 479 212 348 220 110 c 1
 402 543 l 1
 522 516 l 1x58
 279 0 l 1
 124 0 l 1
 103 256 80 425 22 503 c 1
 141 542 l 1xa8
EndSplineSet
EndChar
StartChar: u1D70B
Encoding: 120587 120587 854
Width: 590
Flags: W
HStem: -14 21G<460 460> 0 21G<60 185 60 60> 431 98<120 612 245 389 245 245 515 598 515 515>
VStem: 346.42 129.58
LayerCount: 2
Fore
SplineSet
515 431 m 1x70
 476 159 l 2
 470 110 477 92 510 77 c 1
 460 -14 l 1xb0
 372 8 336 53 349 149 c 2
 389 431 l 1
 245 431 l 1
 185 0 l 1
 60 0 l 1
 120 431 l 1
 92 430 74 426 51 420 c 1
 37 512 l 1
 69 524 107 529 159 529 c 2
 612 529 l 1
 598 431 l 1
 515 431 l 1x70
EndSplineSet
EndChar
StartChar: u1D710
Encoding: 120592 120592 859
Width: 555
Flags: W
HStem: -15 97<214 303 214 339.5> 509 20G<104 230 230 230 383 503 503 503>
VStem: 388 123<359.5 429 293.5 444.5>
LayerCount: 2
Fore
SplineSet
503 529 m 1
 508 490 511 451 511 407 c 0
 511 180 451 -15 228 -15 c 0
 91 -15 41 77 54 173 c 2
 104 529 l 1
 230 529 l 1
 181 175 l 2
 173 121 189 82 239 82 c 0
 367 82 388 291 388 428 c 0
 388 461 387 495 383 529 c 1
 503 529 l 1
EndSplineSet
EndChar
StartChar: u1D716
Encoding: 120598 120598 865
Width: 477
Flags: W
HStem: -15 101<231.5 283 231.5 283> 230 81<178 368 166 379> 446 98<280 340.5>
VStem: 38 127<158.5 205.5 158.5 277>
LayerCount: 2
Fore
SplineSet
261 86 m 0
 305 86 337 100 378 125 c 1
 426 43 l 1
 373 6 316 -15 250 -15 c 0
 116 -15 38 70 38 208 c 0
 38 346 116 544 321 544 c 0
 385 544 440 524 484 481 c 1
 420 408 l 1
 389 435 360 446 321 446 c 0
 239 446 197 383 178 311 c 1
 379 311 l 1
 368 230 l 1
 166 230 l 1
 165 220 165 210 165 201 c 0
 165 116 202 86 261 86 c 0
EndSplineSet
EndChar
StartChar: u1D719
Encoding: 120601 120601 868
Width: 639
Flags: W
HStem: -218 21G<188 188> 733 20G<449 449>
VStem: 31 126<173 267.5 173 300> 482 126<262 358>
LayerCount: 2
Fore
SplineSet
608 316 m 0
 608 144 511 15 344 4 c 1
 314 -204 l 1
 188 -218 l 1
 220 4 l 1
 109 16 31 86 31 213 c 0
 31 387 128 515 294 525 c 1
 323 740 l 1
 449 753 l 1
 418 525 l 1
 530 514 608 442 608 316 c 0
157 210 m 0
 157 136 185 98 240 92 c 1
 290 438 l 1
 195 426 157 325 157 210 c 0
348 92 m 1
 443 104 482 204 482 320 c 0
 482 396 454 432 398 437 c 1
 348 92 l 1
EndSplineSet
EndChar
StartChar: u1D71A
Encoding: 120602 120602 869
Width: 573
Flags: W
HStem: -218 21G<294 294> 21 97<254.5 307 241.5 360.5> 449 95<280 344>
VStem: 25.42 124.58 400 131<285 377>
LayerCount: 2
Fore
SplineSet
161 72 m 1
 150 -7 l 2
 144 -51 167 -70 267 -87 c 0
 360 -103 398 -132 406 -189 c 1
 294 -218 l 1
 284 -189 269 -185 183 -169 c 0
 70 -149 12 -100 28 18 c 2
 63 275 l 2
 87 449 173 544 322 544 c 0
 453 544 531 465 531 336 c 0
 531 180 439 21 282 21 c 0
 227 21 188 41 161 72 c 1
318 449 m 0
 242 449 204 383 186 251 c 2
 173 161 l 1
 193 133 222 118 261 118 c 0
 353 118 400 233 400 337 c 0
 400 417 370 449 318 449 c 0
EndSplineSet
EndChar
StartChar: u1D71B
Encoding: 120603 120603 870
Width: 726
Flags: W
HStem: -15 97<208 238 445 505.5> 434 95<124.5 743 144 743 259 259 259 545 649 730 649 649>
VStem: 50 125<137.5 209.5 137.5 215> 353 68.57 569 122<248.5 301 195 317>
LayerCount: 2
Fore
SplineSet
730 434 m 1
 649 434 l 1
 672 389 691 334 691 268 c 0
 691 122 614 -15 480 -15 c 0
 410 -15 357 23 353 106 c 1
 321 19 274 -15 202 -15 c 0
 114 -15 50 35 50 165 c 0
 50 265 91 353 153 434 c 1
 144 434 l 2
 105 434 92 431 60 422 c 1
 46 511 l 1
 85 526 123 529 213 529 c 2
 743 529 l 1
 730 434 l 1
569 292 m 0
 569 342 560 388 545 434 c 1
 259 434 l 1
 207 344 175 251 175 168 c 0
 175 107 190 82 226 82 c 0
 261 82 295 106 306 186 c 2
 324 311 l 1
 444 327 l 1
 425 187 l 2
 417 127 420 82 467 82 c 0
 544 82 569 205 569 292 c 0
EndSplineSet
EndChar
StartChar: u1D729
Encoding: 120617 120617 884
Width: 516
Flags: W
HStem: 0 174<2 460 -22 484> 276 155<103 434 81 456> 528 168<75 517 51 562>
VStem: -22 584
LayerCount: 2
Fore
SplineSet
562 696 m 1
 517 528 l 1
 51 528 l 1
 75 696 l 1
 562 696 l 1
456 431 m 1
 434 276 l 1
 81 276 l 1
 103 431 l 1
 456 431 l 1
484 174 m 1
 460 0 l 1
 -22 0 l 1
 2 174 l 1
 484 174 l 1
EndSplineSet
EndChar
StartChar: u1D72C
Encoding: 120620 120620 887
Width: 600
Flags: W
HStem: 0 21G<6 208 6 6> 217 145<258 304 304 306 238 304> 553 143<285 328 285 285>
VStem: 409 208<460.5 505.5>
LayerCount: 2
Fore
SplineSet
349 696 m 2
 516 696 617 627 617 495 c 0
 617 370 534 217 306 217 c 2
 238 217 l 1
 208 0 l 1
 6 0 l 1
 103 696 l 1
 349 696 l 2
304 362 m 2
 389 362 409 438 409 483 c 0
 409 528 385 553 328 553 c 2
 285 553 l 1
 258 362 l 1
 304 362 l 2
EndSplineSet
EndChar
StartChar: u1D739
Encoding: 120633 120633 899
Width: 567
Flags: W
HStem: -20 142<243.5 300 243.5 361> 631 133<339.5 381.5>
VStem: 10 198<171 228.5 171 249.5> 115 183<578.5 601 578.5 636.5> 354 198<278 334.5>
LayerCount: 2
Fore
SplineSet
347 764 m 0xe8
 452 764 520 727 557 683 c 1
 461 588 l 1
 431 616 400 631 363 631 c 0
 316 631 298 612 298 590 c 0xd8
 298 567 310 555 374 528 c 0
 494 477 552 416 552 304 c 0
 552 175 476 -20 246 -20 c 0
 96 -20 10 80 10 195 c 0xe8
 10 304 50 407 196 460 c 1
 132 504 115 549 115 596 c 0xd8
 115 677 189 764 347 764 c 0xe8
286 410 m 1
 215 345 208 262 208 195 c 0
 208 147 226 122 261 122 c 0
 339 122 354 244 354 312 c 0
 354 357 338 380 286 410 c 1
EndSplineSet
EndChar
StartChar: u1D73B
Encoding: 120635 120635 901
Width: 426
Flags: W
HStem: 606 138<114 207 74 489> 645 99<114 502>
VStem: 3 201<221.5 275.5> 202 201<-50.5 -23.5>
LayerCount: 2
Fore
SplineSet
181 -228 m 1xa0
 125 -113 l 1
 172 -85 202 -66 202 -35 c 0x90
 202 -12 187 -1 142 22 c 0
 43 73 3 115 3 217 c 0
 3 334 81 471 333 626 c 1
 303 615 252 606 207 606 c 2
 74 606 l 1
 114 744 l 1
 489 744 l 1xa0
 502 645 l 1
 241 445 204 310 204 248 c 0x60
 204 195 230 166 296 134 c 0
 362 103 403 71 403 -4 c 0x90
 403 -102 332 -167 181 -228 c 1xa0
EndSplineSet
EndChar
StartChar: u1D743
Encoding: 120643 120643 909
Width: 446
Flags: W
HStem: -227 21G<213 213> 371 124<298 404 356 370> 629 135<338 375>
VStem: 10 202<227 280> 97 192<543 577 534 617> 234 201<-50.5 -23.5>
LayerCount: 2
Fore
SplineSet
213 -227 m 1xf0
 157 -112 l 1
 204 -84 234 -66 234 -35 c 0xf4
 234 -12 219 -1 174 22 c 0
 78 69 10 119 10 230 c 0xf0
 10 330 57 411 205 446 c 1
 135 465 97 510 97 576 c 0
 97 658 172 764 336 764 c 0
 417 764 485 738 532 691 c 1
 439 599 l 1
 413 617 392 629 358 629 c 0
 318 629 289 600 289 554 c 0
 289 514 312 495 356 495 c 2xe8
 404 495 l 1
 370 371 l 1
 332 371 l 2
 264 371 212 326 212 258 c 0xf0
 212 196 245 173 328 134 c 0
 394 103 435 71 435 -4 c 0xf4
 435 -102 364 -166 213 -227 c 1xf0
EndSplineSet
EndChar
StartChar: u1D74E
Encoding: 120654 120654 920
Width: 753
Flags: W
HStem: -20 142<221 221.5 465 512.5> 514 20G<118 292 292 292 537 711 711 711>
VStem: 9 189<163 233> 554 186<320 382>
LayerCount: 2
Fore
SplineSet
183 -20 m 0
 76 -20 9 43 9 178 c 0
 9 288 54 414 118 534 c 1
 292 534 l 1
 238 403 198 290 198 187 c 0
 198 139 211 122 231 122 c 0
 253 122 269 132 277 191 c 2
 300 355 l 1
 482 379 l 1
 456 195 l 2
 451 147 449 122 481 122 c 0
 544 122 554 289 554 351 c 0
 554 413 545 475 537 534 c 1
 711 534 l 1
 728 480 740 420 740 350 c 0
 740 172 688 -20 497 -20 c 0
 423 -20 367 14 354 103 c 1
 320 11 260 -20 183 -20 c 0
EndSplineSet
EndChar
StartChar: u1D753
Encoding: 120659 120659 925
Width: 675
Flags: W
HStem: -227 21G<170 170> 744 20G
VStem: 10 185<184.5 258.5 184.5 302.5> 479 185<279 357>
LayerCount: 2
Fore
SplineSet
664 319 m 0
 664 143 562 24 395 6 c 1
 364 -207 l 1
 170 -227 l 1
 203 7 l 1
 102 20 10 79 10 215 c 0
 10 390 110 509 276 528 c 1
 306 744 l 1
 500 764 l 1
 468 528 l 1
 570 515 664 456 664 319 c 0
391 125 m 1
 459 135 479 231 479 327 c 0
 479 387 460 406 432 410 c 1
 391 125 l 1
278 408 m 1
 215 395 195 304 195 213 c 0
 195 156 212 132 238 125 c 1
 278 408 l 1
EndSplineSet
EndChar
StartChar: u1D754
Encoding: 120660 120660 926
Width: 576
Flags: W
HStem: -226 21G<272 272> 20 141<285.5 300 253.5 381> 413 141<285.5 323.5>
VStem: -6.21001 195.71 360 199<295 368>
LayerCount: 2
Fore
SplineSet
194 63 m 1
 185 2 l 2
 180 -29 197 -43 296 -60 c 0
 389 -76 432 -111 440 -195 c 1
 272 -226 l 1
 265 -194 247 -190 163 -176 c 0
 44 -156 -22 -97 -3 38 c 2
 30 278 l 2
 54 453 142 554 317 554 c 0
 462 554 559 476 559 334 c 0
 559 153 450 20 312 20 c 0
 259 20 222 36 194 63 c 1
309 413 m 0
 262 413 238 372 220 242 c 2
 212 184 l 1
 225 169 242 161 265 161 c 0
 335 161 360 254 360 336 c 0
 360 400 338 413 309 413 c 0
EndSplineSet
EndChar
StartChar: u1D7D1
Encoding: 120785 120785 931
Width: 532
Flags: W
HStem: -20 148<196.5 246.5 196.5 328> 289 132<175 213 153 216> 553 143<198 245.5>
VStem: 299 190<483.5 510.5> 310 202<180 234.5>
LayerCount: 2
Fore
SplineSet
247 696 m 0xf0
 405 696 489 622 489 524 c 0xf0
 489 443 443 386 355 359 c 1
 439 349 512 301 512 189 c 0
 512 79 420 -20 236 -20 c 0
 120 -20 39 24 -15 90 c 1
 88 191 l 1
 134 147 171 128 222 128 c 0
 271 128 310 154 310 206 c 0
 310 263 279 289 213 289 c 2xe8
 153 289 l 1
 175 421 l 1
 216 421 l 2
 272 421 299 448 299 490 c 0
 299 531 269 553 222 553 c 0
 174 553 131 532 94 496 c 1
 -3 598 l 1
 63 662 147 696 247 696 c 0xf0
EndSplineSet
EndChar
StartChar: u1D7D3
Encoding: 120787 120787 933
Width: 557
Flags: W
HStem: -20 146<211 266.5 211 333.5> 323 131<240 390> 542 138<240 475 240 240>
VStem: 50 190<433 542 433 680 433 680> 330 202<193 262>
LayerCount: 2
Fore
SplineSet
496 680 m 1
 475 542 l 1
 240 542 l 1
 240 433 l 1
 273 448 306 454 335 454 c 0
 445 454 532 373 532 229 c 0
 532 80 421 -20 246 -20 c 0
 133 -20 56 29 5 93 c 1
 114 192 l 1
 144 152 185 126 237 126 c 0
 296 126 330 160 330 226 c 0
 330 298 299 323 251 323 c 0
 229 323 208 317 179 299 c 1
 50 299 l 1
 50 680 l 1
 496 680 l 1
EndSplineSet
EndChar
StartChar: u1D7D4
Encoding: 120788 120788 934
Width: 582
Flags: W
HStem: -20 138<278 327.5 278 388.5> 333 131<295.5 427> 560 136<322 370.5>
VStem: 27 208<234 303 234 423.5> 369 198<197.5 270>
LayerCount: 2
Fore
SplineSet
368 464 m 0
 486 464 567 377 567 233 c 0
 567 101 474 -20 303 -20 c 0
 113 -20 27 110 27 306 c 0
 27 541 149 696 347 696 c 0
 416 696 472 676 510 650 c 1
 439 535 l 1
 413 550 388 560 353 560 c 0
 291 560 247 515 235 416 c 1
 276 449 323 464 368 464 c 0
305 118 m 0
 350 118 369 163 369 232 c 0
 369 308 351 333 306 333 c 0
 285 333 260 324 235 303 c 1
 235 165 251 118 305 118 c 0
EndSplineSet
EndChar
StartChar: u1D7D6
Encoding: 120790 120790 936
Width: 599
Flags: W
HStem: -20 138<276 330.5 276 388.5> 567 129<282 321.5>
VStem: 20 196<171.5 213.5 171.5 220> 46 191<489.5 527 489.5 562> 362 191<493 525> 383 196<169.5 210.5>
LayerCount: 2
Fore
SplineSet
448 365 m 1xe4
 541 317 579 258 579 185 c 0
 579 78 482 -20 295 -20 c 0
 117 -20 20 75 20 182 c 0xe4
 20 258 66 313 141 346 c 1
 71 392 46 451 46 509 c 0
 46 615 144 696 300 696 c 0
 455 696 553 628 553 519 c 0xd8
 553 467 522 407 448 365 c 1xe4
301 567 m 0xd8
 263 567 237 548 237 506 c 0
 237 473 252 447 293 426 c 2
 317 416 l 1
 356 446 362 477 362 508 c 0
 362 542 342 567 301 567 c 0xd8
302 118 m 0xe4
 359 118 383 151 383 188 c 0
 383 233 360 254 304 277 c 2
 266 291 l 1
 232 268 216 233 216 194 c 0
 216 149 250 118 302 118 c 0xe4
EndSplineSet
EndChar
